<svg id="图层_1" data-name="图层 1" xmlns="http://www.w3.org/2000/svg" viewBox="0 0 352.37 257.74"><defs><style>.cls-1{fill:#c30d23;}.cls-2{fill:#e60012;}</style></defs><title>logo</title><path class="cls-1" d="M434.75,480.54a7.93,7.93,0,0,0,7.2,1,7.31,7.31,0,0,0,2.59-1.39c6.08-5.29,12.69-5.89,19.8-2.36.18.09.38.15.6.24,1.54-6.5,5.56-10.64,11.91-12.27,1.82-.46,3.9.06,5.86.12.42,0,1,.17,1.25,0,2.86-2,4.5-1.77,6.61,1.11,3.82-3,8.05-3.26,12.43-1.52,4.57,1.8,6.8,5.33,7,10.18,4.31-.09,6.64,1.42,7.5,4.75s-1.21,7.91-5.47,7.86c-.4,0-1.1.35-1.18.65-.88,3.61-3.57,5.24-6.81,6-4.64,1.07-9.06.58-12.9-2.86-2.48,3.1-5.85,4-9.63,3.58a14,14,0,0,1-9.38-5.11c-2.15,2.28-4.69,1.83-7.18,1a11.42,11.42,0,0,1-6.71-5.17c-1.93-3.61-5.23-4.53-9.26-3.66-2.3.5-4.53,1.36-6.84,1.71a14.58,14.58,0,0,1-5.1-.22C434.57,483.62,434.46,483.24,434.75,480.54Zm65.38-5.41c-1.53-1.36-2.55-1.55-3.84-.75a3.14,3.14,0,0,0-.9,4.64,6.48,6.48,0,0,0,7.24,2.45,6.11,6.11,0,0,0,4.75-5.75,8,8,0,0,0-3.68-7.22c-4.61-3.14-11.37-2.67-14.44,2.35a3.46,3.46,0,0,0-.23.56l-.39-.28.89-2.37c-2.46-2.26-3.85-2.31-4.54-.19-9.44-3.31-18.54,3.9-17.8,14.63a20.24,20.24,0,0,0-1.23-2,5,5,0,0,0-1.54-1.54,17.94,17.94,0,0,0-9.34-1.6c-2.56.24-5.45,1.31-6.54,2.55l.68-.12c5.32-1.19,8-.08,11.07,4.48a11.68,11.68,0,0,0,8.09,5.2c2.23.38,3.28-.75,2.76-2.9a6.83,6.83,0,0,1,5.47-8.43,5,5,0,0,1,6.1,5.49,3.6,3.6,0,0,1-3.54,3.16c-1.79,0-2.73-1-2.84-3.11.25.36.44.61.6.86a2.13,2.13,0,0,0,3,.83,2.26,2.26,0,0,0,1.18-2.79,3.29,3.29,0,0,0-3.89-2.6,5,5,0,0,0-3.43,7.7,10.62,10.62,0,0,0,17.56.95c1,2.4,4.84,3.82,9.65,3.55s8-2.35,9-5.78a24.55,24.55,0,0,0,2.9-.86,4.27,4.27,0,0,0,2.28-4.45,4,4,0,0,0-2.83-3.59,2.22,2.22,0,0,0-2.77.83,2.4,2.4,0,0,0,.12,3.05c.22.28.47.53.85,1a2.8,2.8,0,0,1-2.79-2,33.14,33.14,0,0,1-4.21,2.18,8.07,8.07,0,0,1-9.16-2.67c-2-2.63-1.3-6,1.43-7.2C498,472.36,499.71,473.09,500.13,475.13Z" transform="translate(-165.31 -237.98)"/><path class="cls-2" d="M374.24,471.15c-4-13.4.74-25.48,11.91-32.37a21.1,21.1,0,0,1,3.09-1.69c4.71-1.85,8.73-4.22,12.11-8.43,6.79-8.46,24.57-8.74,32.27,2.9,18.61-5.32,35.66,4.58,39.61,23,3.45,16.09-5.81,32.19-20.7,36.11-8.77,2.31-21.3.63-28-11.8-.18,0-.46,0-.52.05-7.22,10.46-18.16,12-29.48,11.6-4.54-.14-9-2.11-13.55-3.25a12.28,12.28,0,0,0-2.79-.66,25.89,25.89,0,0,1-15.35-5.16c-7-5-14.57-4.47-22.28-2.91-1.73.35-3.25,1.77-5,2.8-.25-5.79,8.1-13.68,16-15.65C359.68,463.66,366.92,466,374.24,471.15Zm75-6.72c-.73-1.5-1.14-3.37-2.28-4.5a11.07,11.07,0,0,0-16.34,1.3,15.35,15.35,0,0,0,.59,19c5.71,6.65,15.85,8.44,24.2,4.27,9.52-4.75,14.8-15.44,13.44-27.2a26.43,26.43,0,0,0-20-22.16c-6.49-1.45-12.58-.88-17.55,4.22-3.28-8.68-7.08-11.88-14.61-12-10.3-.13-15.45,5.67-17.46,15.32l-1.11-4.71c-4.19,2.3-8.38,3.94-11.75,6.61-6.59,5.22-10.24,12.08-8.74,20.84,1,6.06,8.1,10.33,13.94,8.44a7,7,0,0,0,5-6.26c.42-3.7-1.13-6.2-5.15-7.41,3.33-.87,5.22.4,6.57,2.71a9.43,9.43,0,0,1-5.27,13.84,13.87,13.87,0,0,1-10.35-.39c-2.63-1.21-5-2.16-8-1.17-1.14.38-2.82-.49-4.13-1.07-1.87-.84-3.56-2.08-5.43-2.91-6.27-2.77-12.13-1.51-17.68,1.72,3.85.2,7.91-.29,11.49.78,3.74,1.12,6.91,4,10.56,5.61,2.89,1.25,6.14,1.68,9.24,2.42,1,.24,2.28,0,3.12.47,8.62,5.09,17.71,4.27,26.82,2.06a19.72,19.72,0,0,0,15.05-20.22,10.86,10.86,0,0,0-9.05-10.46c-4.22-.73-9.05,3-8.94,7.25a5.84,5.84,0,0,0,1.78,3.72c.56.52,2.11,0,3.25-.1,0-.06.06.4-.07.46-1.08.5-2.63,1.59-3.2,1.22-1.43-.92-3.07-2.36-3.46-3.89-1.69-6.56,4.78-12.69,11.78-11.39,5.88,1.09,9.34,4.9,11.23,10.51,1-1.1,1.78-2.09,2.68-3a13,13,0,0,1,18.48.15A5.26,5.26,0,0,1,449.26,464.43Z" transform="translate(-165.31 -237.98)"/><text x="-165.31" y="-237.98"></text><path class="cls-2" d="M263.07,341.9q0,7.22-1.78,7.22-2.25,0-2.25-4.5,0-.86.09-2.25c.07-.94.1-1.54.1-1.79,0-1.06-.42-1.59-1.27-1.59s-3,0-6.43-.1H240.28c-2.13.07-3.73.1-4.79.1-.13,0-.19.4-.19,1.22v2.06c.06.88.1,1.53.1,2q0,5.07-1.79,5.07c-1.43,0-2.15-1.19-2.15-3.57q0-.47.09-1.5t.09-1.59q0-4.23.57-5.44,1-2.07,4.88-2.07,3.66,0,10.93.09c4.84.07,8.49.1,10.93.1Q263.08,335.33,263.07,341.9Zm-.37-25.62c0,1.44-1.1,2.16-3.28,2.16-.88,0-2.12-.06-3.71-.19s-2.8-.18-3.61-.18c-1.5,0-2.43.2-2.77.61a4.69,4.69,0,0,0-.52,2.76c0,2.32.41,3.47,1.22,3.47h4.51q3-.09,4.59-.09c2.38,0,3.57.66,3.57,2s-1,2-2.91,2c-1.13,0-2.8,0-5-.09s-3.89-.1-5-.1H235.4c-2.57,0-3.85-.56-3.85-1.69a1.66,1.66,0,0,1,1.88-1.87h5q3.28.09,5.07.09c1.12,0,1.75-.34,1.87-1v-2.44a5.07,5.07,0,0,1,.1-.75,5.86,5.86,0,0,0,.09-.84,1.6,1.6,0,0,0-.66-1.51c-.12-.06-3.69-.09-10.69-.09-1.63,0-2.44-.62-2.44-1.88s.78-1.72,2.34-1.78c1.25-.06,2.79-.06,4.6,0,2.5.06,4.1.1,4.79.1a1.84,1.84,0,0,0,2-2c.1-1.32.71-2,1.83-2s1.55.62,1.64,1.87.46,1.88,1.08,1.88h4.51c2-.06,3.53-.1,4.59-.1C261.51,314.59,262.7,315.16,262.7,316.28Zm.19,82.56c0,1.07-1.38,1.6-4.13,1.6H244.4c-1,0-2.55.05-4.64.14s-3.64.14-4.64.14c-2.26,0-3.38-.69-3.38-2.06s.87-1.88,2.63-1.88c.5,0,1.23,0,2.2.09s1.67.1,2.11.1q2.16,0,2.16-1.5c0-3.13-.1-4.85-.28-5.16-.44,0-1.11,0-2,.09s-1.61.09-2.11.09q-3.48,0-4.41-2.9a24,24,0,0,1-.47-5.92q0-4,2.82-5a28.48,28.48,0,0,1,6.19-.37,35.56,35.56,0,0,0,.18-3.57c0-1.62-.12-2.55-.37-2.77a7.24,7.24,0,0,0-3-.32,7.92,7.92,0,0,1-4.32-.85c-1-.75-1.5-2.16-1.5-4.22,0-.5,0-1.3.09-2.39s.1-1.93.1-2.49v-3.19c-.06-1.44-.1-2.53-.1-3.28,0-1.63.6-2.44,1.79-2.44s1.78.91,1.78,2.72c0,1.25.17,2,.52,2.2a2.66,2.66,0,0,0,1.45.33h19.05a3.46,3.46,0,0,0,2.53-.65,5.38,5.38,0,0,0,.37-2.63c0-1.44.6-2.16,1.79-2.16s2,.63,2,1.88c0,6.19-.07,10-.19,11.54a12.18,12.18,0,0,1-.47,3.56,2.86,2.86,0,0,1-2.63,2l-4.69.19q-1.41.38-1.41,4.32,0,2,1.41,2.34h2.91q5.07,0,5.07,5.63a20,20,0,0,1-.47,5.35q-.75,3.09-3.47,3.09c-.38,0-.86,0-1.46-.09s-1-.09-1.26-.09c-1.38,0-2.23.4-2.54,1.22a13.68,13.68,0,0,0-.19,3c0,1.62.54,2.44,1.6,2.44.5,0,1.22-.05,2.16-.14a21.88,21.88,0,0,1,2.25-.14C261.76,396.69,262.89,397.4,262.89,398.84Zm-3.66-18.1q0-.57-6.38-.57c-1.57,0-2.5-1-2.82-3-.06-.19-.09-1.78-.09-4.78a3.81,3.81,0,0,0-.42-2.3,4.29,4.29,0,0,0-2.49-.42c-1.75,0-2.63.84-2.63,2.53,0,.25,0,.7.1,1.36s.09,1.14.09,1.45q0,3.86-2.72,4.6a28.23,28.23,0,0,1-5.63.28,1.33,1.33,0,0,0-.8.24,1,1,0,0,0-.32.89c0,3.38.09,5.19.28,5.44s1.62.37,4.31.37c2.44,0,3.94.79,4.51,2.35a30.28,30.28,0,0,1,.28,5.54,1.91,1.91,0,0,0,2.16,2.15c2.25,0,3.37-.75,3.37-2.25a13.35,13.35,0,0,0-.14-1.5,16.33,16.33,0,0,1-.14-1.87q0-4.51,4.13-4.51c.44,0,1.14,0,2.11.09s1.67.1,2.11.1a3.14,3.14,0,0,0,1-.19Q259.24,386.37,259.23,380.74Zm.09-19.24c0-1.06-.63-1.72-1.88-2a32.2,32.2,0,0,0-3.28-.09c-.69,0-1.72.05-3.1.14s-2.4.14-3.09.14c-1.13,0-2.75-.06-4.88-.19s-3.75-.18-4.88-.18c-1.44,0-2.28.17-2.53.51a6.28,6.28,0,0,0-.38,2.86v1.22c0,1.38.35,2.19,1,2.44h3.19q15.38,0,19-.37c.43,0,.65,0,.65-.1,0-.5,0-1.23.1-2.2S259.32,362,259.32,361.5Zm-5.72-14.07c0,.94-.6,1.53-1.78,1.78h-9.2c-1.25-.18-1.88-.78-1.88-1.78,0-1.31.82-1.94,2.44-1.88h8.64C253,345.55,253.6,346.18,253.6,347.43Zm64.45-25q0,1.41-.09,4.32c-.07,1.94-.1,3.41-.1,4.41q0,5.54-.93,6.57t-6.48,1.12c-.56,0-1.45,0-2.67.1s-2.14.09-2.77.09-1.89-.06-3.42-.19-2.71-.18-3.52-.18c-1.5,0-2.44.2-2.82.61s-.56,1.39-.56,2.95c0,2.25.44,3.38,1.31,3.38q2.73,0,8.26-.1h8.16c2.75,0,4.44.76,5.07,2.26a26.44,26.44,0,0,1,.37,5.91,16.53,16.53,0,0,1-.18,2.72q-.66,3.29-7.32,3.28-1,0-2.91-.09c-1.25-.06-2.06-.1-2.44-.1H282.12c-.88,0-1.31,1.38-1.31,4.13a7.36,7.36,0,0,0,.37,2.35,6.79,6.79,0,0,0,2.06.28c.44,0,1.16-.05,2.16-.14s1.72-.14,2.16-.14q3.19,0,9.76.18t9.85.19c.75,0,1.92-.06,3.52-.19s2.8-.18,3.61-.18c2.31,0,3.47.69,3.47,2.06q0,1.79-4.69,1.78c-.81,0-2,0-3.61-.09s-2.83-.09-3.71-.09c-1.81,0-4.63,0-8.44.09s-6.66.09-8.54.09c-5.32,0-8.44-.31-9.38-.93q-2.16-1.41-2.16-8.64,0-4.59,5.72-4.59c1.75,0,4.48,0,8.17.14s6.44.14,8.25.14q2.34,0,7.23-.1h7.31c.32,0,.47-.81.47-2.43a25.32,25.32,0,0,0-.09-3.48c-.13-.56-.84-.84-2.16-.84q-5.72,0-17,.09t-17,.1c-.56,0-1.43-.05-2.62-.14s-2.07-.14-2.63-.14-.72.56-.84,1.68a23.76,23.76,0,0,0,0,3.19c.06,1.94.09,2.79.09,2.54v8.82c0,3.12-.59,4.69-1.78,4.69q-2.25,0-2.25-3.85c0-.56.06-1.41.18-2.53a23.94,23.94,0,0,0,.19-2.54q0-1.59-.09-5c-.06-2.29-.1-4-.1-5,0-3.76,2-5.63,5.91-5.63,1.63,0,4,0,7.18.14s5.55.14,7.18.14,2.44-.47,2.81-1.41a29.21,29.21,0,0,0,.1-3.56,1.6,1.6,0,0,0-1-1.69,13.6,13.6,0,0,0-2.16-.1c-1.82,0-4.57,0-8.26.1s-6.44.09-8.25.09c-2.19,0-3.29-.66-3.29-2s1.19-1.88,3.57-1.88q6.93,0,20.68.1t20.69.09c.63,0,.94-.34.94-1,0-.44,0-1-.09-1.78s-.1-1.28-.1-1.6a4.11,4.11,0,0,0-.19-1.69c-.18-.43-.65-.65-1.4-.65h-7q-4.61.09-6.94.09h-4.32c-2-.19-3-.81-3-1.88s.91-1.72,2.72-2h3.94c.69,0,1.6,0,2.72.1s2,.09,2.72.09,2.35-.06,4.6-.19c.44,0,1.06,0,1.88.1s1.37.09,1.68.09a4.27,4.27,0,0,0,2.26-.37c.31-.25.47-.91.47-2q0-2.82,1.68-2.82C317.33,319.94,318.05,320.79,318.05,322.47ZM318,382.61q0,8.16-.1,12.11a11.81,11.81,0,0,1-.28,3.19,3.14,3.14,0,0,1-2.06,2.25,24.58,24.58,0,0,1-5.54.37c-3.31,0-5-1.62-5-4.88,0-.37,0-1,.09-1.78v-1.78c0-.94-.53-1.5-1.59-1.69a24.63,24.63,0,0,0-3-.09c-.75,0-1.13.81-1.13,2.44,0,.43.05,1.07.14,1.92a17.06,17.06,0,0,1,.14,1.92q0,3.95-6.19,3.94c-4.56,0-6.85-1.31-6.85-3.94a13.31,13.31,0,0,1,.14-1.59,11.6,11.6,0,0,0,.14-1.6c0-1.44-.23-2.31-.7-2.62a5.69,5.69,0,0,0-2.86-.47c-1.31,0-2,.31-2.16.94.06-.32.1.46.1,2.34q0,4.13-1.32,5.58t-5.35,1.46a10.36,10.36,0,0,1-4.73-.8c-1-.53-1.52-1.83-1.65-3.89q.11,1,.1-4.51v-2.62c-.06-1.13-.1-2-.1-2.73v-4q0-5.82,5.26-5.82c.56,0,1.41,0,2.53.14s2,.14,2.53.14,1.63,0,2.82-.09h2.91c4.06,0,6.1.56,6.1,1.69,0,1.38-.72,2.06-2.16,2.06-1.69,0-4.22,0-7.6-.14s-5.91-.14-7.6-.14a1.31,1.31,0,0,0-.8.24q-.33.22-.33,1.08v1.12a8.47,8.47,0,0,1,.1,1,8.73,8.73,0,0,1-.1,2.44c.19.75.88,1.13,2.07,1.13q2.25,0,6.56-.1t6.57-.09c2.07,0,3.1.69,3.1,2.07q0,3.29.19,7c.06.75.37,1.13.93,1.13l2.82-.1c1.19,0,1.78-.09,1.78-.28q0-5.25.09-7.22c.07-1.75,1.16-2.63,3.29-2.63.56,0,1.41,0,2.53.09s2,.1,2.53.1q3.57,0,8.07-.19A1.88,1.88,0,0,0,314.3,385v-3.1a4.58,4.58,0,0,0-.14-1.64,5.08,5.08,0,0,0-1.74-.14c-1.44,0-3.56,0-6.38.09s-4.91.1-6.28.1q-3.86,0-3.85-2.16c0-1.06.91-1.69,2.72-1.88H303c1.18,0,3,0,5.49.1s4.29.09,5.48.09C316.61,376.42,318,378.49,318,382.61Zm-32.74-66.14q0,2.16-4.23,2.16c-.5,0-1.23-.05-2.2-.14s-1.71-.14-2.21-.14-1.12,0-2.06.09-1.63.09-2.06.09c-2.76,0-4.13-.68-4.13-2.06s1.44-1.88,4.31-1.88c.44,0,1.14,0,2.11.1s1.71.09,2.21.09,1.12,0,2.06-.09,1.66-.1,2.16-.1C283.87,314.59,285.22,315.22,285.22,316.47Zm0,10.41c0,1.32-1.38,2-4.13,2-.5,0-1.25,0-2.25-.14s-1.76-.14-2.26-.14-1.11,0-2,.1-1.58.09-2,.09c-2.75,0-4.13-.62-4.13-1.88s1.44-2.06,4.32-2.06c.43,0,1.14,0,2.11.09s1.67.1,2.11.1,1.09,0,2-.1,1.53-.09,2-.09Q285.22,324.82,285.22,326.88ZM277.62,393a3.77,3.77,0,0,0-.43-2.21q-.42-.51-2-.51c-1.57,0-2.51.15-2.82.47s-.47,1.25-.47,2.81c0,2.19.13,3.28.38,3.28.56,0,1.22,0,2,.1h1.5c.87,0,1.41-.22,1.59-.66A10.91,10.91,0,0,0,277.62,393Zm40.24-79.66q0,5.07-6.28,5.07H293.75c-1.62,0-2.44-.66-2.44-2s1.13-2,3.38-2c.94,0,2.35.05,4.22.14s3.32.14,4.32.14h5.53q2.63,0,4.32-.09c.75-.06,1.13-.13,1.13-.19v-1.13c-.07-1.62.59-2.43,2-2.43Q317.86,310.94,317.86,313.37Zm-3.37,79.47c0-1.13-.21-1.81-.61-2.06a5.42,5.42,0,0,0-2.49-.38c-1.44,0-2.28.28-2.53.85a4.06,4.06,0,0,0-.28,1.87q0,.57.09,1.74t.09,1.59q0,.42,1.41.42a34.14,34.14,0,0,0,4-.28,15.9,15.9,0,0,1,.14-1.87A18.81,18.81,0,0,0,314.49,392.84Z" transform="translate(-165.31 -237.98)"/><path class="cls-2" d="M328.94,309.43a12.09,12.09,0,0,1,1.48-.49c.16,0,.29.07.41.26a.28.28,0,0,0,.45.11c.16-.11.63.2,1.43.95s1.2,1.23,1.2,1.45a6.81,6.81,0,0,0,1.43,1.89c.54.57,1.16,1.31,1.86,2.2s1.3,1.67,1.78,2.32.65,1,.54,1-.12.06,0,.17,1.29-.51,3.2-2.23l2-1.71c.92-.76,1.11-1.41.58-1.95q-.3-.28,1.14-1.77a7.49,7.49,0,0,1,1.31-1.26,1.31,1.31,0,0,1,.92,0,1.67,1.67,0,0,0,1.17.2.43.43,0,0,1,.55.12.76.76,0,0,0,.68.25c.34,0,.68.33,1,1a2.93,2.93,0,0,1,.37,1.77,5.78,5.78,0,0,1-2.23,3.32c-.95.84-2,1.88-3.23,3.14a27.84,27.84,0,0,0-2.31,2.63,3.4,3.4,0,0,1-1.26,1.2.79.79,0,0,0-.49.49,5.48,5.48,0,0,0,0,1.4c.08,1.07-.05,1.75-.4,2.06a3,3,0,0,1-1.06.6c-.32.1-.54.07-.65-.09-.27-.38-.48-.19-.63.58a11,11,0,0,0-.29,1.71c-.15,1.53-.25,2.33-.28,2.4a39,39,0,0,0-.86,7.78c-.08,2.33-.17,4.37-.29,6.12s-.17,2.75-.17,3c0,.42-.36.92-1.09,1.49q-.45.35-.51.12c-.12-.23-.5-.4-1.14-.52a1.26,1.26,0,0,1-1.15-.94,3,3,0,0,0-.71-1.38,5.18,5.18,0,0,1-1-2.14,7.45,7.45,0,0,1-.23-1.6,8,8,0,0,1,.35-1.89,55.88,55.88,0,0,0,1.34-9.46q.43-5.86-.14-7.47a3.11,3.11,0,0,1,.08-1.6c.18-.72.36-1.08.55-1.08a1,1,0,0,0,.83-.6,1.71,1.71,0,0,0,.25-1.23,1.4,1.4,0,0,0-.2-.6c-.05-.06-.19,0-.4.14s-.32.22-.34.2.05-.11.2-.26a1.14,1.14,0,0,0,.31-.57,1.37,1.37,0,0,0,0-.63c0-.19-.11-.29-.22-.29s-.23-.3-.23-.91-.12-.95-.35-1-.47-.42-.74-1a11.21,11.21,0,0,0-1.83-2.52,8.32,8.32,0,0,0-1.4-1.34,2.59,2.59,0,0,0-1.29-.26,2,2,0,0,1-1.46-.43,1.64,1.64,0,0,1-.31-1.4,1.18,1.18,0,0,1,.34-.77A3.47,3.47,0,0,1,328.94,309.43Z" transform="translate(-165.31 -237.98)"/><path class="cls-2" d="M343.35,369.13a5,5,0,0,1,2.6,0,3.8,3.8,0,0,1,2,1.15c.53.61.8,1,.8,1.28s.09.38.28.38.43.35.6,1.05a5.7,5.7,0,0,1,.15,2,8.23,8.23,0,0,1-1.66,3.94,2.1,2.1,0,0,0-.52,1.2,2.12,2.12,0,0,1-.63,1.26c-.34.46-.43.76-.25.89a6.05,6.05,0,0,0,1.74.48,8.41,8.41,0,0,1,3.12,1.52,7.05,7.05,0,0,1,2.26,2.43q1.83,3.84-.35,8.69a11.41,11.41,0,0,1-4.4,4.32,15.37,15.37,0,0,1-6.46,2.43,21.91,21.91,0,0,0-5.09,1.55,33.23,33.23,0,0,1-3.63,1.31,1.13,1.13,0,0,1-1.18-.28.45.45,0,0,0-.43-.18,2.56,2.56,0,0,0-.71.52,3.31,3.31,0,0,1-1.37.91c-.73.19-1.52-.35-2.38-1.63a6.73,6.73,0,0,1-1.28-3.74,6.15,6.15,0,0,0-.57-1.95,7.14,7.14,0,0,1-.64-2.6,3.33,3.33,0,0,1,.46-2,2.91,2.91,0,0,0,.46-.91,8.92,8.92,0,0,1,.63-1.55c.31-.65.94-2.31,1.92-5s1.59-4.51,1.85-5.46a38.06,38.06,0,0,1,1.86-4.24,14.49,14.49,0,0,0,1.46-3.48c-.15-.23,0-.57.52-1s.87-.61,1.14-.54a1,1,0,0,0,.92-.06,21.91,21.91,0,0,1,3.14-1.4A25.06,25.06,0,0,1,343.35,369.13Zm6.86,16.7a4.72,4.72,0,0,0-2.17-.6c-1.14-.13-1.83-.1-2.06.09a3.77,3.77,0,0,1-1.74.48,4.18,4.18,0,0,0-1.63.4,9.28,9.28,0,0,1-1.49,1,10.38,10.38,0,0,0-2.06,1.51,2.19,2.19,0,0,1-1,.72,2.64,2.64,0,0,1-1.14-.37q-1.26-.63-1.2,0a.59.59,0,0,0,.05.22c.12.31.07.52-.14.63a.72.72,0,0,0-.31.69,4.47,4.47,0,0,1-.55,1.66c-.36.76-.44,1.31-.25,1.66a1.43,1.43,0,0,1,.14.68,5.62,5.62,0,0,1-.37,1.15,17.75,17.75,0,0,0-.57,2.11c0,.19-.07.35-.09.46a.7.7,0,0,0,0,.29c0,.07,0,.11.09.11h.17c.26-.08.95-.28,2.06-.63q1.93-.63,4.86-1.77a18.56,18.56,0,0,0,3.31-1.49,1.47,1.47,0,0,1,1-.4c.32,0,.48-.09.48-.28s.19-.29.58-.29.57-.08.57-.23a9.08,9.08,0,0,1,1.71-1.94,9.48,9.48,0,0,0,2.2-3.41A2.09,2.09,0,0,0,350.21,385.83Zm-3.94-14.47a1.27,1.27,0,0,0-.86-.77,8,8,0,0,0-2.23.26,13.4,13.4,0,0,0-2.57.69,12.92,12.92,0,0,0-2.12.85,1.46,1.46,0,0,0-.74,1.26c0,.23,0,.34.11.34s.25.31.29.92a17.1,17.1,0,0,1,0,2.12,9.17,9.17,0,0,1-.32,1.94,14.64,14.64,0,0,0-.57,3.55c.12-.23.27-.29.46-.18s1.26-.34,2.86-1.6c.72-.61,1.64-1.46,2.74-2.57a8.6,8.6,0,0,0,1.66-1.89,6.81,6.81,0,0,1,.86-1.6,5.67,5.67,0,0,0,.83-1.8A2.72,2.72,0,0,0,346.27,371.36Z" transform="translate(-165.31 -237.98)"/><path class="cls-2" d="M412.77,361.84c.14,66.36-52.36,119.42-115.25,123.22-36.93,2.22-68.95-9.52-95.33-35.36-23.86-23.38-36.17-52.2-36.86-85.65-1.42-69.14,53.89-124.59,120.92-126C356.42,236.5,413.21,293.35,412.77,361.84Zm-6.44,0c.73-63.8-52.68-118.87-120.17-117.39-62.88,1.37-116.62,54.3-114.46,121.36,2,60.92,52.51,114,119,113.2C355.72,478.17,406.81,424.53,406.33,361.81Z" transform="translate(-165.31 -237.98)"/><path class="cls-2" d="M290.24,250.47c58,.05,110.12,47.18,110.23,111,.11,62.44-49.66,110.1-108.61,111.5A111.31,111.31,0,0,1,177.61,361.9C177.52,298.72,229.54,249.32,290.24,250.47Zm.11,207c52.76-.6,94.31-44.07,94.53-95a96,96,0,1,0-94.53,95ZM346,278.56l3.94,3.07,5.41-6.38L348,269.78l-6.17,9.28,9.25,6.89,6-6.82,6.1,5-4.92,5.44L355,286.87a5.46,5.46,0,0,1,.83-1.07c.67-.54,1.41-1,2.12-1.49l-.93,2.31a2.32,2.32,0,0,0-.07.38c1.36,1.05,2.21.4,4.05-3.17l-4-3-4.67,6,6.33,5.42c2.62-2.84,5.09-5.53,7.69-8.37l-9.78-7.75-6.1,7.36-6.11-4.79,4.61-6.07,3.43,3-2.69,3.24-.69-.33,1.21-2.68-1.45-1Zm-7.91-2,5.51-10-11.35-5.18c-1.44,2.93-2.79,5.71-4.19,8.58L321,266.89c1-2.38,2-4.61,3-7l4,2.1-1.92,3.82-.75-.21c.2-.89.39-1.78.62-2.8l-1.66-.74-1.72,4.28,4.53,2.08,3.71-7.56-8.43-3.49-3.8,10.47,10.65,4.46,4.16-8.08,7.09,3.44-3.41,6.43-3.68-1.7c.8-3.14,1.1-3.48,2.57-2.92-.3.79-.61,1.57-.91,2.35,1.72.9,1.85.75,3.31-3.86l-4.65-2.08c-1.09,2.46-2.07,4.67-3.11,7Zm31.06,26.1-4.5-6.35c2.15-1.57,4.07-3,6.16-4.53l2.33,3.77c-3,2.47-3.12,2.51-4,1.5l2.08-1.67-1.2-1.49-3.63,2.74,2.79,4.13,7.06-4.66-5.49-7.29L362.15,296l6.92,9.24,7.69-4.84,4.37,6.54-6.23,3.86-2.41-3.6,3-2.09c1.32,1,.47,1.47-.31,1.94-1.19.72-1,1.36.18,2.06l3.87-2.92L376.14,302c-2.13,1.54-4.1,2.95-6.17,4.43l4.48,7,9.8-5.82-7.19-10.23Zm15.16,34.46,10.87-3.24c-1.49-3.95-2.9-7.72-4.37-11.64l-9.05,3.15c-.93-2.45-1.81-4.73-2.76-7.22l7.1-2.84,1.43,4.35-4.22,1.3-.31-.81,2.48-1.38c-.24-.56-.44-1-.7-1.64l-4.23,1.73,1.73,4.68,8-2.74c-1.21-2.89-2.32-5.57-3.52-8.43l-10.05,4.79,4.38,10.64,8.68-2.75c.89,2.55,1.72,4.9,2.59,7.39l-7,2.19c-.48-1.42-.92-2.68-1.38-4a23.78,23.78,0,0,1,2.62-1.05c.33-.1.77.16,1.16.26-.19.35-.29.84-.58,1a9.53,9.53,0,0,1-1.74.76l.66,1.55,4.61-1.92c-.67-1.66-1.28-3.17-2-4.83l-7.1,2.78C382.55,331.93,383.39,334.42,384.31,337.16ZM182.64,386.25,193.53,384c-.59-3.89-1.15-7.59-1.73-11.37l-9.1.6c-.28-2.74-.53-5.16-.79-7.75l7.34-.52.34,4.28a14.39,14.39,0,0,1-2.16.28,7.72,7.72,0,0,1-1.66-.45c.46-.3.9-.79,1.4-.87,1.57-.25,1.4-1,.76-2l-4.64.77.62,5.11c2.29-.27,4.41-.45,6.49-.82a1.72,1.72,0,0,0,1-1.31c-.09-2.31-.37-4.61-.61-7.15l-11.36.62c.55,4.28,1.05,8.22,1.57,12.26l9.52-.83c.34,2.69.64,5.09,1,7.63l-7.63,1.06-.19-4.38c3.71-.69,3.71-.69,4.12.62-1.11.31-3.19-.12-2,2.36l4.41-.78-.6-4.91-8.39.8C181.69,380.3,182.16,383.22,182.64,386.25Zm65.79-125.79,3.17,9-7.21,2.77c-1-2.47-1.91-4.71-2.85-7.06l4.29-1.44c.43,1.2.83,2.18,1.11,3.2.08.33-.16.75-.26,1.13a3.29,3.29,0,0,1-.81-.66,14.19,14.19,0,0,1-.79-1.69l-1.74.79c.62,1.45,1.18,2.77,1.78,4.16l4.65-1.71c-1-2.75-1.83-5.29-2.75-8l-8.4,3.54c1.62,3.44,3.15,6.66,4.73,10,3.17-1.28,6.15-2.54,9.19-3.69,1.33-.5,1.47-1.17,1-2.43-.84-2.22-1.5-4.51-2.27-6.91l7.4-2.62c.75,2.39,1.46,4.63,2.2,7l-4,1.41-1.36-3.37c1.28-1.16,1.56-.18,1.81.67.4,1.32,1.05,1.38,2.06.4l-1.86-4.48-4.84,2c1,2.46,1.83,4.72,2.75,7.12l7.92-2.65c-1.1-3.72-2.14-7.21-3.23-10.89Zm-15.28,9.8c1.41,2.2,2.66,4.13,4,6.16l-3.4,2.31c-2.42-2.38-2.54-2.77-1.19-3.59l1.63,1.91c1.48-1.08.9-2.41-1.95-4.74-1.24.94-2.5,1.9-3.9,3l4.52,6.15,6.94-4.66-6-9.64-10.11,7.31,5.44,7.86-6.26,4.59-4.62-6.1,3.81-2.52,2.44,3.63-.58.51-2.23-1.94-1.32,1.13,2.78,3.6,4-2.91-4.68-7-7.23,5.64,7.23,8.45,9.16-7-5-7.61C228.83,273.24,230.89,271.82,233.15,270.26Zm66.32,197.61-7.85.77c-.07-1.44-.14-2.69-.18-3.95-.12-3.85-.11-3.85,4.08-3.56a10.51,10.51,0,0,1,.28,2.09,5.85,5.85,0,0,1-.63,1.61c-.26-.47-.72-.91-.75-1.39-.11-1.4-.71-1.54-1.92-.89.25,1.55.5,3.1.76,4.75l5.11-.69c-.33-2.63-.63-5.08-.94-7.55-2.53.15-4.72.32-6.91.39-1.31,0-1.52.74-1.44,1.83.14,2.13.21,4.25.32,6.38.06,1.09.16,2.18.25,3.36L302,469.6c-.28-3.2-.53-6.22-.81-9.46,2.27-.29,4.42-.63,6.59-.78a1.66,1.66,0,0,1,1.25,1.05c.37,2,.55,4,.83,6.33l-4.52.32-.32-4.32c2.08-.39.35,4,3.41,2.06-.21-1.34-.44-2.75-.68-4.28l-4.88.54c.22,2.91.43,5.59.65,8.39l9-1.37c-.74-3.73-1.43-7.27-2.15-10.9L299,458.83C299.14,461.94,299.3,464.84,299.47,467.87ZM206,304.2l3.25-3.78L203,294.81,197.35,302l9.12,6.4,7.12-9.08-6.72-6.14,5.15-5.94,5.36,5-2.8,3.26a18.17,18.17,0,0,1-2-1.61,4.17,4.17,0,0,1-.55-1.42c.49.1,1.15,0,1.47.34,1,.94,1.68.9,2.24-.52l-4-3-3.23,4,5.9,4.85,4.87-5.4c-2.52-3-4.89-5.85-7.36-8.82l-8.09,9.74c2.51,2.15,4.82,4.14,7.25,6.21l-4.93,6-6-4.73,3.05-3.39,3.21,2.88-.37.69L203.48,300l-1,1.39ZM350.38,447.28c-1.57-2.11-3-4.11-4.56-6.16l-6.93,4.6,5.93,9.66L355,448.16l-5.4-7.91c2.17-1.59,4.19-3.05,6.28-4.57,1.59,2.13,3,4.08,4.56,6.14l-3.8,2.49-2.41-3.63.56-.55,2.21,2,1.36-1.17-2.8-3.6-4.06,2.93,4.72,6.95,7.25-5.57-7.25-8.47-9.15,7c1.74,2.69,3.31,5.13,4.93,7.65l-6.5,4.41-3.93-6.14,3.55-2.48a28.84,28.84,0,0,1,1.73,2.48c.15.27-.11.77-.19,1.16a2.8,2.8,0,0,1-.95-.39,17.19,17.19,0,0,1-1.27-1.53l-1.27,1.08,3.08,3.93Zm-84.76,11.3,4.13.82c-.3,3.54-.3,3.54-1.85,3.38l.28-2.49c-1.89-.39-2.34.65-2.05,4.68l4.85.65c.39-2.35.8-4.49,1.08-6.64a1.4,1.4,0,0,0-.82-1.06c-2.31-.54-4.66-1-7.19-1.47-.92,3.75-1.8,7.31-2.7,11,3.87.68,7.47,1.3,11.06,1.94,1.08.2,1.35-.37,1.51-1.3.46-2.6,1-5.18,1.53-7.93l7.63,1.27c-.37,2.59-.71,4.93-1.09,7.5L277.6,468c.2-1.2.31-2.19.54-3.15.09-.38.46-.68.71-1,.17.42.56.88.49,1.26-.25,1.36.05,2.05,1.71,1.69.22-1.4.43-2.81.66-4.33l-4.94-.95c-.55,2.78-1.08,5.43-1.64,8.27l9,1.24.93-11.12-11.39-1.53-2,8.85L264,465.7ZM188.55,320.36c-1.14,2.95-2.21,5.69-3.32,8.55,3.37,1.13,6.44,2.19,9.54,3.17a1.44,1.44,0,0,0,1.28-.43c1.37-3.29,2.65-6.62,4-10l-8.18-4c1.1-2.44,2.13-4.73,3.22-7.17l6.57,3.23-1.71,3.81c-3.52-1.11-3.52-1.11-2.91-2.57l1.11.39,1.26.46c.89-1.71.35-2.12-4-3.18l-1.85,4.69,7,2.9,3.59-7.53L194,307.59,189.12,319l8.71,4-3,7.13-7.07-2.86,2-4.12,3.94,1.93-.32.77-2.77-.69-.59,1.71,4.19,1.63,2-4.5ZM366.88,438.25l7.95-9.6-7.25-6.25,4.9-6,6,4.78-3.05,3.32-3.24-2.8.37-.68,2.69,1.25,1-1.42-3.65-2.69-3.16,3.78,6.32,5.59,5.55-7.27-9.13-6.36L365.13,423l6.73,6.15-5.18,5.93-5.32-4.95c.95-1.14,1.83-2.17,2.76-3.29l3,2.48c-1.55,1.89-2.07-.66-3.35-.38l-.86,1.07,4,3.05,3.27-4.06-6-4.81-5.56,6.22Zm25.82-53.83c.21-1.81.39-3.42.59-5.15l-7.51-1c-.53,2.75-1,5.39-1.57,8.18l11.06,2.48c.66-4.24,1.26-8.16,1.89-12.26l-9.41-1.7c.39-2.63.75-5,1.15-7.65l7.53,1c-.3,1.53-.57,2.88-.86,4.34-1.57-.21-3.09,0-4.63-1.58H394c.61-2.08-.53-2.62-4.16-2-.23,1.45-.46,2.94-.72,4.58l8.3,1.54c.35-3.18.66-6.05,1-9.09-3.52-.24-6.77-.49-10-.63a1.54,1.54,0,0,0-1.17.93c-.48,3.41-.83,6.84-1.24,10.39l8.89,1.83c-.5,2.7-.94,5.15-1.42,7.72l-7.12-1.52c.29-1.54.53-2.86.77-4.17,3.71.39,3.71.39,3.24,2-.32-.09-.66-.32-.94-.25a12.6,12.6,0,0,0-1.72.69c.44.35.84.92,1.34,1A31.08,31.08,0,0,0,392.7,384.42ZM314.85,455.9c1.16,3.68,2.28,7.2,3.43,10.84l11.59-4.64c-1.14-3-2.21-5.84-3.37-8.9l7.16-3c1,2.37,2,4.61,3,7l-4.39,1.54c-.48-1.56-.89-2.87-1.3-4.18l.79-.28c.42.75.85,1.51,1.34,2.4l1.72-.74L333,451.84l-4.59,1.81c1,2.69,1.9,5.22,2.87,7.91l8.36-3.69-5-9.93c-3.36,1.44-6.41,2.78-9.48,4.06-1,.42-1,1-.66,1.89.87,2.35,1.66,4.73,2.52,7.23l-7.39,2.74c-.82-2.45-1.55-4.64-2.31-6.94l3.85-1.42c1.68,2.82,1.71,3.16.33,3.87l-1.1-2.26c-1.78.52-1.62,1.72.6,5l4.57-2c-1-2.42-1.9-4.67-2.85-7ZM189.4,400l-2.85-7.35,6.91-2.39,1.51,3.84c-3,1.79-3.34,1.81-3.76.25l2.26-1.07-.69-1.54-4.56,2,2.1,4.75,7-2.91c-.95-2.66-1.86-5.18-2.82-7.87l-10.84,3.53,4.72,11.53,9-3.38c1,2.46,1.95,4.76,2.93,7.17l-7,3c-.55-1.53-1-2.81-1.53-4.22l4-1.56.45.62-2.39,1.83.73,1.52,4.18-1.83-1.82-4.65-7.93,2.91,3.75,8.35,9.93-5L197.93,397Zm-.05-44.52-7.66-1,1-4.45,4.19.81,0,.73-3.09.31c.15.58.19,1.58.46,1.64,1.2.29,3.21.85,3.57.34.87-1.21,1-3,1.43-4.65l-8.43-1.56c-.37,3.1-.71,6-1.08,9.11l11.13.69c.46-3.91.9-7.58,1.36-11.41l-9-1.81c.49-2.68.93-5.14,1.4-7.72l7.13,1.47-.74,4.26-3.7-.64c0-1.9,1.13-1.05,1.92-1.1.4,0,.77-.44,1.15-.68-.28-.35-.52-.95-.85-1-1.29-.21-2.61-.26-4.11-.38l-.58,5.07,7.5,1,1.52-8.2-11.05-2.45c-.64,4.18-1.24,8.1-1.87,12.26l9.39,1.67C190,350.4,189.72,352.76,189.35,355.47ZM378.27,408.4l4.61,2c.73-1.66,1.39-3.14,2.12-4.77l-6.93-3.15-3.85,7.38,9.92,5.56c1.8-3.83,3.52-7.47,5.32-11.27l-8.58-4.25,3.3-7.06,7,3.18c-.81,1.46-1.47,2.66-2.17,3.94-1.13-.56-2.11-1-3-1.51-.29-.17-.36-.68-.54-1a3.22,3.22,0,0,1,1,0,14.78,14.78,0,0,1,1.73.69l.73-1.79-4.2-1.81L382.6,399l7.49,3.81,3.58-8.4-10.41-3.9-4.61,10.58,8.05,4.28c-1.19,2.39-2.31,4.62-3.52,7l-6.43-3.46,1.91-3.74c3.22,1.25,3.22,1.25,2.84,2.55C380.5,408.11,379.13,405.69,378.27,408.4ZM203.46,413l2.53,3.56c-1.41.49-2,2.5-4.22,1.37l2.43-2-1-1.36-4,3.15,3.21,4.1,6.09-4.56-4.64-6.89-9.65,6c2.53,3.46,4.9,6.73,7.33,10.08l7.85-5.45,4.6,6.26-6.1,4.62c-.88-1.34-1.64-2.5-2.51-3.81l3.63-2.41.52.63-2,2.08,1.11,1.4,3.6-2.8-2.88-4.06-7,4.75,5.61,7.21,8.45-7.28-7.09-9.12-7.59,5-4.47-6.49Zm17.73,28.93,4.94-5.84c-2.17-2-4.11-3.79-5.67-5.21l-8.24,7.81,9.24,7.92,6.36-7.09,5.94,5-4.85,5.89-3.31-3.1,2.9-3.22.68.4-1.4,2.65,1.39,1.09,2.86-3.6-3.75-3.28-5.68,6.23,7.14,5.7,6.52-9-9-7.26L221,443.61l-5.85-5.32,5.22-5.1,3,2.74a12.66,12.66,0,0,1-1.47,1.75,6.17,6.17,0,0,1-1.52.68c.12-.5.08-1.15.38-1.47.9-.95.82-1.58-.52-2.13l-3.1,3.86ZM272,256.41c.11,1.58.2,2.95.3,4.33l-.71.17-1-2.89c-.51.23-1.44.47-1.43.67.05,1.31-.06,3.47.57,3.74,1.35.57,3.12.17,4.86.17-.28-3.05-.53-5.73-.79-8.58l-9,1.45c.77,3.71,1.5,7.19,2.26,10.87l11.35-1.76c-.22-3.21-.41-6-.61-9.11l7.88-.63c.06,1.27.1,2.2.14,3.12.18,3.89.18,3.9-3.49,4.49-.11,0-.23-.09-.5-.2l-.45-3.61c2.51-.29,1,2.07,2.5,2.72,1.68-1.62.05-3.43.34-5.3a32.08,32.08,0,0,0-4,.57c-.48.14-1.15.92-1.11,1.35.17,2,.55,4.06.9,6.33l8.26-.69c-.21-3.91-.4-7.53-.6-11.29l-12.33,1.5c.32,3.27.61,6.28.92,9.48l-7.63,1-1.17-7.59Zm24.47,4.87,4.9.78c.53-2.78,1-5.43,1.57-8.28l-9.07-1.05c-.28,3.81-.54,7.36-.81,11.06l11.4,1.44,1.91-8.86c2.31.37,4.42.65,6.49,1.1a1.65,1.65,0,0,1,.94,1.31c-.29,2-.78,4-1.21,6.09l-4.27-.85a7.05,7.05,0,0,1,.18-1.07c.35-.86.74-1.7,1.11-2.55l.48,2.8c1.84.27,1.84.27,2-4.46-4.72-1.38-4.72-1.38-5.61,3.36-.2,1-.34,2.06-.54,3.26l8.18,1.67c.87-3.75,1.72-7.4,2.58-11.14L304.39,254l-1.65,9.32c-2.34-.31-4.51-.53-6.66-.91a1.51,1.51,0,0,1-.89-1.18c.2-2.1.55-4.18.89-6.5l4.43.85c-.29,1.57-.54,2.89-.78,4.21h-.84l-.15-2.82-1.73-.25ZM245.08,458.8,238,455.27l3.46-6.41,4,2c-1.12,1-.54,3.24-3,3l1-2.7c-1.63-.75-2.45.3-3.19,4l4.52,2,3.16-6.94-7.39-3.82c-1.9,3.39-3.7,6.59-5.58,9.92l11.32,5.27,4.23-8.56,7,3.24c-1.06,2.4-2,4.63-3.07,7l-3.91-2.11c1.39-3.44,1.39-3.44,2.66-3.42.36,1-2.11,2.81,1,3.2l1.72-4.06-4.48-2.16-3.82,7.51,8.4,3.56c1.33-3.53,2.58-6.87,3.9-10.4l-10.6-4.58Zm152.62-109c-2.77.2-5.34.44-7.91.52-.56,0-1.59-.43-1.64-.79-.35-2.2-.49-4.44-.71-6.79l7.6-.86v4.57H391l-.13-.55,2.63-.9c-.06-.47-.11-1-.19-1.66l-4.49.51c.14,1.68.27,3.17.41,4.86l8.4-.37c-.39-3.17-.75-6-1.13-9.09-3.48.61-6.75,1.14-10,1.8a1.7,1.7,0,0,0-.84,1.4c.26,2.84.74,5.66,1,8.5.11,1.32.6,1.72,1.86,1.63,2.43-.17,4.87-.24,7.41-.36l.57,7.87h-7.35c-.07-1.42-.13-2.65-.2-4a26.24,26.24,0,0,1,2.68-.29c.37,0,.74.33,1.11.5a5.07,5.07,0,0,1-.84.83c-.27.16-.7.06-.95.24a6.13,6.13,0,0,0-.88,1c.34.21.7.62,1,.59,1.31-.08,2.61-.3,4.13-.5l-.6-5.13-7.54.77c.14,2.78.27,5.4.4,8.1h11.34C398.41,358,398.07,354.09,397.7,349.79Z" transform="translate(-165.31 -237.98)"/></svg>