<?xml version="1.0" encoding="utf-8"?>
<!-- Generator: Adobe Illustrator 22.0.0, SVG Export Plug-In . SVG Version: 6.00 Build 0)  -->
<svg version="1.1" id="图层_1" xmlns="http://www.w3.org/2000/svg" xmlns:xlink="http://www.w3.org/1999/xlink" x="0px" y="0px"
	 viewBox="0 0 612 792" style="enable-background:new 0 0 612 792;" xml:space="preserve">
<g>
	<path d="M434.7,480.5c2.2,1.6,4.7,1.8,7.2,1c0.9-0.3,1.9-0.8,2.6-1.4c6.1-5.3,12.7-5.9,19.8-2.4c0.2,0.1,0.4,0.2,0.6,0.2
		c1.5-6.5,5.6-10.6,11.9-12.3c1.8-0.5,3.9,0.1,5.9,0.1c0.4,0,1,0.2,1.3,0c2.9-2,4.5-1.8,6.6,1.1c3.8-3,8.1-3.3,12.4-1.5
		c4.6,1.8,6.8,5.3,7,10.2c4.3-0.1,6.6,1.4,7.5,4.8c0.8,3.3-1.2,7.9-5.5,7.9c-0.4,0-1.1,0.3-1.2,0.7c-0.9,3.6-3.6,5.2-6.8,6
		c-4.6,1.1-9.1,0.6-12.9-2.9c-2.5,3.1-5.9,4-9.6,3.6c-3.7-0.4-6.9-2.1-9.4-5.1c-2.2,2.3-4.7,1.8-7.2,1c-2.8-0.9-5.3-2.5-6.7-5.2
		c-1.9-3.6-5.2-4.5-9.3-3.7c-2.3,0.5-4.5,1.4-6.8,1.7c-1.7,0.2-3.5,0.1-5.1-0.2C434.6,483.6,434.5,483.2,434.7,480.5z M500.1,475.1
		c-1.5-1.4-2.6-1.6-3.8-0.7c-1.7,1-2,2.9-0.9,4.6c1.5,2.2,4.4,3.2,7.2,2.4c2.9-0.8,4.6-3,4.8-5.7c0.1-3.1-1.2-5.5-3.7-7.2
		c-4.6-3.1-11.4-2.7-14.4,2.3c-0.1,0.2-0.2,0.4-0.2,0.6c-0.1-0.1-0.3-0.2-0.4-0.3c0.3-0.8,0.6-1.6,0.9-2.4c-2.5-2.3-3.9-2.3-4.5-0.2
		c-9.4-3.3-18.5,3.9-17.8,14.6c-0.6-0.9-0.8-1.5-1.2-2c-0.5-0.6-0.9-1.3-1.5-1.5c-3-1.4-6.1-1.9-9.3-1.6c-2.6,0.2-5.5,1.3-6.5,2.5
		c0.3,0,0.5-0.1,0.7-0.1c5.3-1.2,8-0.1,11.1,4.5c1.9,2.9,4.7,4.6,8.1,5.2c2.2,0.4,3.3-0.7,2.8-2.9c-1-3.9,1.5-7.7,5.5-8.4
		c3.5-0.6,6.5,2.1,6.1,5.5c-0.2,1.8-1.8,3.2-3.5,3.2c-1.8,0-2.7-1-2.8-3.1c0.3,0.4,0.4,0.6,0.6,0.9c0.7,1.2,1.8,1.4,3,0.8
		c1.2-0.5,1.4-1.6,1.2-2.8c-0.4-1.8-2-2.9-3.9-2.6c-3.7,0.6-5.4,4.4-3.4,7.7c3.8,6.4,13,6.9,17.6,1c1,2.4,4.8,3.8,9.7,3.5
		c4.8-0.3,8-2.3,9-5.8c1-0.3,2-0.5,2.9-0.9c1.6-0.7,2.4-2.4,2.3-4.5c-0.1-1.7-1.2-3.1-2.8-3.6c-1.1-0.3-2.1-0.2-2.8,0.8
		c-0.7,1-0.7,2.1,0.1,3.1c0.2,0.3,0.5,0.5,0.9,1c-1.7,0-2.3-1-2.8-2c-1.5,0.8-2.8,1.7-4.2,2.2c-3.4,1.2-7.1,0-9.2-2.7
		c-2-2.6-1.3-6,1.4-7.2C498,472.4,499.7,473.1,500.1,475.1z"/>
	<path d="M374.2,471.2c-4-13.4,0.7-25.5,11.9-32.4c1-0.6,2-1.3,3.1-1.7c4.7-1.9,8.7-4.2,12.1-8.4c6.8-8.5,24.6-8.7,32.3,2.9
		c18.6-5.3,35.7,4.6,39.6,23c3.4,16.1-5.8,32.2-20.7,36.1c-8.8,2.3-21.3,0.6-28-11.8c-0.2,0-0.5,0-0.5,0
		c-7.2,10.5-18.2,12-29.5,11.6c-4.5-0.1-9-2.1-13.5-3.2c-0.9-0.2-1.9-0.7-2.8-0.7c-5.7,0-10.8-1.9-15.4-5.2c-7-5-14.6-4.5-22.3-2.9
		c-1.7,0.4-3.2,1.8-5,2.8c-0.3-5.8,8.1-13.7,16-15.6C359.7,463.7,366.9,466,374.2,471.2z M449.3,464.4c-0.7-1.5-1.1-3.4-2.3-4.5
		c-4.6-4.5-12.5-3.8-16.3,1.3c-4.3,5.6-4,13.7,0.6,19c5.7,6.7,15.9,8.4,24.2,4.3c9.5-4.8,14.8-15.4,13.4-27.2
		c-1.2-10.5-9.6-19.8-20-22.2c-6.5-1.5-12.6-0.9-17.5,4.2c-3.3-8.7-7.1-11.9-14.6-12c-10.3-0.1-15.4,5.7-17.5,15.3
		c-0.3-1.3-0.6-2.6-1.1-4.7c-4.2,2.3-8.4,3.9-11.8,6.6c-6.6,5.2-10.2,12.1-8.7,20.8c1,6.1,8.1,10.3,13.9,8.4c3-1,4.7-3.1,5-6.3
		c0.4-3.7-1.1-6.2-5.1-7.4c3.3-0.9,5.2,0.4,6.6,2.7c3.1,5.3,0.6,11.9-5.3,13.8c-3.5,1.1-7,1.1-10.3-0.4c-2.6-1.2-5-2.2-8-1.2
		c-1.1,0.4-2.8-0.5-4.1-1.1c-1.9-0.8-3.6-2.1-5.4-2.9c-6.3-2.8-12.1-1.5-17.7,1.7c3.9,0.2,7.9-0.3,11.5,0.8c3.7,1.1,6.9,4,10.6,5.6
		c2.9,1.2,6.1,1.7,9.2,2.4c1,0.2,2.3,0,3.1,0.5c8.6,5.1,17.7,4.3,26.8,2.1c9.3-2.3,15.5-10.7,15-20.2c-0.2-5.3-3.9-9.6-9-10.5
		c-4.2-0.7-9.1,3-8.9,7.2c0,1.3,0.8,2.8,1.8,3.7c0.6,0.5,2.1,0,3.2-0.1c0-0.1,0.1,0.4-0.1,0.5c-1.1,0.5-2.6,1.6-3.2,1.2
		c-1.4-0.9-3.1-2.4-3.5-3.9c-1.7-6.6,4.8-12.7,11.8-11.4c5.9,1.1,9.3,4.9,11.2,10.5c1-1.1,1.8-2.1,2.7-3c5.1-5.1,13.5-5,18.5,0.1
		C449.6,460.4,450,462.4,449.3,464.4z"/>
	<g>
		<g>
			<path d="M263.1,341.9c0,4.8-0.6,7.2-1.8,7.2c-1.5,0-2.3-1.5-2.3-4.5c0-0.6,0-1.3,0.1-2.3c0.1-0.9,0.1-1.5,0.1-1.8
				c0-1.1-0.4-1.6-1.3-1.6c-0.8,0-3,0-6.4-0.1c-2.6,0-4.8,0-6.5,0c-1,0-2.6,0-4.8,0c-2.1,0.1-3.7,0.1-4.8,0.1
				c-0.1,0-0.2,0.4-0.2,1.2c0,0.4,0,1.1,0,2.1c0.1,0.9,0.1,1.5,0.1,2c0,3.4-0.6,5.1-1.8,5.1c-1.4,0-2.2-1.2-2.2-3.6
				c0-0.3,0-0.8,0.1-1.5c0.1-0.7,0.1-1.2,0.1-1.6c0-2.8,0.2-4.6,0.6-5.4c0.7-1.4,2.3-2.1,4.9-2.1c2.4,0,6.1,0,10.9,0.1
				c4.8,0.1,8.5,0.1,10.9,0.1C261.7,335.3,263.1,337.5,263.1,341.9z M262.7,316.3c0,1.4-1.1,2.2-3.3,2.2c-0.9,0-2.1-0.1-3.7-0.2
				c-1.6-0.1-2.8-0.2-3.6-0.2c-1.5,0-2.4,0.2-2.8,0.6c-0.3,0.4-0.5,1.3-0.5,2.8c0,2.3,0.4,3.5,1.2,3.5c1.1,0,2.6,0,4.5,0
				c2-0.1,3.5-0.1,4.6-0.1c2.4,0,3.6,0.7,3.6,2c0,1.3-1,2-2.9,2c-1.1,0-2.8,0-5-0.1c-2.2-0.1-3.9-0.1-5-0.1h-14.4
				c-2.6,0-3.8-0.6-3.8-1.7c0-1.3,0.6-1.9,1.9-1.9c1.1,0,2.8,0,5,0c2.2,0.1,3.9,0.1,5.1,0.1c1.1,0,1.7-0.3,1.9-1c0-0.8,0-1.6,0-2.4
				c0-0.1,0-0.4,0.1-0.8c0.1-0.4,0.1-0.7,0.1-0.8c0-0.8-0.2-1.3-0.7-1.5c-0.1-0.1-3.7-0.1-10.7-0.1c-1.6,0-2.4-0.6-2.4-1.9
				c0-1.1,0.8-1.7,2.3-1.8c1.3-0.1,2.8-0.1,4.6,0c2.5,0.1,4.1,0.1,4.8,0.1c1.3,0,1.9-0.7,2-2c0.1-1.3,0.7-2,1.8-2
				c1,0,1.5,0.6,1.6,1.9c0.1,1.3,0.5,1.9,1.1,1.9c1.1,0,2.6,0,4.5,0c2-0.1,3.5-0.1,4.6-0.1C261.5,314.6,262.7,315.2,262.7,316.3z
				 M262.9,398.8c0,1.1-1.4,1.6-4.1,1.6h-14.4c-1,0-2.5,0-4.6,0.1c-2.1,0.1-3.6,0.1-4.6,0.1c-2.3,0-3.4-0.7-3.4-2.1
				c0-1.3,0.9-1.9,2.6-1.9c0.5,0,1.2,0,2.2,0.1c1,0.1,1.7,0.1,2.1,0.1c1.4,0,2.2-0.5,2.2-1.5c0-3.1-0.1-4.8-0.3-5.2
				c-0.4,0-1.1,0-2,0.1c-0.9,0.1-1.6,0.1-2.1,0.1c-2.3,0-3.8-1-4.4-2.9c-0.3-1-0.5-3-0.5-5.9c0-2.7,0.9-4.3,2.8-5
				c0.7-0.2,2.8-0.4,6.2-0.4c0.1-1.2,0.2-2.4,0.2-3.6c0-1.6-0.1-2.5-0.4-2.8c-0.3-0.2-1.3-0.3-3-0.3c-2.1,0-3.5-0.3-4.3-0.8
				c-1-0.8-1.5-2.2-1.5-4.2c0-0.5,0-1.3,0.1-2.4c0.1-1.1,0.1-1.9,0.1-2.5c0-0.7,0-1.7,0-3.2c-0.1-1.4-0.1-2.5-0.1-3.3
				c0-1.6,0.6-2.4,1.8-2.4c1.2,0,1.8,0.9,1.8,2.7c0,1.3,0.2,2,0.5,2.2c0.3,0.2,0.8,0.3,1.5,0.3h19c1.3,0,2.2-0.2,2.5-0.7
				c0.2-0.3,0.4-1.2,0.4-2.6c0-1.4,0.6-2.2,1.8-2.2c1.3,0,2,0.6,2,1.9c0,6.2-0.1,10-0.2,11.5c-0.1,1.8-0.2,2.9-0.5,3.6
				c-0.4,1.2-1.3,1.8-2.6,2c-1.6,0.1-3.2,0.1-4.7,0.2c-0.9,0.3-1.4,1.7-1.4,4.3c0,1.3,0.5,2.1,1.4,2.3c0.1,0,1,0,2.9,0
				c3.4,0,5.1,1.9,5.1,5.6c0,2.6-0.2,4.4-0.5,5.3c-0.5,2.1-1.7,3.1-3.5,3.1c-0.4,0-0.9,0-1.5-0.1c-0.6-0.1-1-0.1-1.3-0.1
				c-1.4,0-2.2,0.4-2.5,1.2c-0.1,0.4-0.2,1.4-0.2,3c0,1.6,0.5,2.4,1.6,2.4c0.5,0,1.2,0,2.2-0.1c0.9-0.1,1.7-0.1,2.3-0.1
				C261.8,396.7,262.9,397.4,262.9,398.8z M259.2,380.7c0-0.4-2.1-0.6-6.4-0.6c-1.6,0-2.5-1-2.8-3c-0.1-0.2-0.1-1.8-0.1-4.8
				c0-1.3-0.1-2-0.4-2.3c-0.3-0.3-1.1-0.4-2.5-0.4c-1.8,0-2.6,0.8-2.6,2.5c0,0.3,0,0.7,0.1,1.4c0.1,0.7,0.1,1.1,0.1,1.5
				c0,2.6-0.9,4.1-2.7,4.6c-0.5,0.2-2.4,0.3-5.6,0.3c-0.3,0-0.6,0.1-0.8,0.2c-0.2,0.2-0.3,0.5-0.3,0.9c0,3.4,0.1,5.2,0.3,5.4
				c0.2,0.3,1.6,0.4,4.3,0.4c2.4,0,3.9,0.8,4.5,2.3c0.2,0.6,0.3,2.5,0.3,5.5c0,1.4,0.7,2.2,2.2,2.2c2.3,0,3.4-0.7,3.4-2.3
				c0-0.3,0-0.8-0.1-1.5c-0.1-0.8-0.1-1.4-0.1-1.9c0-3,1.4-4.5,4.1-4.5c0.4,0,1.1,0,2.1,0.1c1,0.1,1.7,0.1,2.1,0.1
				c0.3,0,0.7-0.1,1-0.2C259.2,386.5,259.2,384.5,259.2,380.7z M259.3,361.5c0-1.1-0.6-1.7-1.9-2c-0.4-0.1-1.5-0.1-3.3-0.1
				c-0.7,0-1.7,0-3.1,0.1c-1.4,0.1-2.4,0.1-3.1,0.1c-1.1,0-2.8-0.1-4.9-0.2c-2.1-0.1-3.8-0.2-4.9-0.2c-1.4,0-2.3,0.2-2.5,0.5
				c-0.3,0.3-0.4,1.3-0.4,2.9v1.2c0,1.4,0.3,2.2,1,2.4h3.2c10.3,0,16.6-0.1,19-0.4c0.4,0,0.7,0,0.7-0.1c0-0.5,0-1.2,0.1-2.2
				C259.3,362.7,259.3,362,259.3,361.5z M253.6,347.4c0,0.9-0.6,1.5-1.8,1.8c-0.3,0-1.2,0-2.9,0h-3.2c-1.9,0-2.9,0-3.1,0
				c-1.3-0.2-1.9-0.8-1.9-1.8c0-1.3,0.8-1.9,2.4-1.9h8.6C253,345.6,253.6,346.2,253.6,347.4z M318.1,322.5c0,0.9,0,2.4-0.1,4.3
				c-0.1,1.9-0.1,3.4-0.1,4.4c0,3.7-0.3,5.9-0.9,6.6c-0.6,0.7-2.8,1.1-6.5,1.1c-0.6,0-1.5,0-2.7,0.1c-1.2,0.1-2.1,0.1-2.8,0.1
				c-0.7,0-1.9-0.1-3.4-0.2c-1.5-0.1-2.7-0.2-3.5-0.2c-1.5,0-2.4,0.2-2.8,0.6c-0.4,0.4-0.6,1.4-0.6,3c0,2.3,0.4,3.4,1.3,3.4
				c1.8,0,4.6,0,8.3-0.1c3.6,0,6.3,0,8.2,0c2.8,0,4.4,0.8,5.1,2.3c0.2,0.7,0.4,2.7,0.4,5.9c0,1.1-0.1,2-0.2,2.7
				c-0.4,2.2-2.9,3.3-7.3,3.3c-0.7,0-1.7,0-2.9-0.1c-1.3-0.1-2.1-0.1-2.4-0.1h-22.9c-0.9,0-1.3,1.4-1.3,4.1c0,0.8,0.1,1.6,0.4,2.3
				c0.6,0.2,1.3,0.3,2.1,0.3c0.4,0,1.2,0,2.2-0.1c1-0.1,1.7-0.1,2.2-0.1c2.1,0,5.4,0.1,9.8,0.2c4.4,0.1,7.7,0.2,9.9,0.2
				c0.8,0,1.9-0.1,3.5-0.2c1.6-0.1,2.8-0.2,3.6-0.2c2.3,0,3.5,0.7,3.5,2.1c0,1.2-1.6,1.8-4.7,1.8c-0.8,0-2,0-3.6-0.1
				c-1.6-0.1-2.8-0.1-3.7-0.1c-1.8,0-4.6,0-8.4,0.1c-3.8,0.1-6.7,0.1-8.5,0.1c-5.3,0-8.4-0.3-9.4-0.9c-1.4-0.9-2.2-3.8-2.2-8.6
				c0-3.1,1.9-4.6,5.7-4.6c1.7,0,4.5,0,8.2,0.1c3.7,0.1,6.4,0.1,8.3,0.1c1.6,0,4,0,7.2-0.1c3.3,0,5.8,0,7.3,0c0.3,0,0.5-0.8,0.5-2.4
				c0-2.3,0-3.5-0.1-3.5c-0.1-0.6-0.8-0.8-2.2-0.8c-3.8,0-9.5,0-17,0.1c-7.5,0.1-13.2,0.1-17,0.1c-0.6,0-1.4,0-2.6-0.1
				c-1.2-0.1-2.1-0.1-2.6-0.1c-0.4,0-0.7,0.6-0.8,1.7c-0.1,0.8-0.1,1.8,0,3.2c0.1,1.9,0.1,2.8,0.1,2.5v8.8c0,3.1-0.6,4.7-1.8,4.7
				c-1.5,0-2.3-1.3-2.3-3.8c0-0.6,0.1-1.4,0.2-2.5c0.1-1.1,0.2-2,0.2-2.5c0-1.1,0-2.7-0.1-5c-0.1-2.3-0.1-4-0.1-5
				c0-3.8,2-5.6,5.9-5.6c1.6,0,4,0,7.2,0.1c3.2,0.1,5.6,0.1,7.2,0.1c1.5,0,2.4-0.5,2.8-1.4c0.1-0.2,0.1-1.4,0.1-3.6
				c0-0.9-0.3-1.4-1-1.7c-0.3-0.1-1-0.1-2.2-0.1c-1.8,0-4.6,0-8.3,0.1c-3.7,0.1-6.4,0.1-8.3,0.1c-2.2,0-3.3-0.7-3.3-2
				c0-1.3,1.2-1.9,3.6-1.9c4.6,0,11.5,0,20.7,0.1c9.2,0.1,16.1,0.1,20.7,0.1c0.6,0,0.9-0.3,0.9-1c0-0.4,0-1-0.1-1.8
				c-0.1-0.7-0.1-1.3-0.1-1.6c0-0.9-0.1-1.5-0.2-1.7c-0.2-0.4-0.7-0.7-1.4-0.7c-1.6,0-3.9,0-7,0c-3.1,0.1-5.4,0.1-6.9,0.1
				c-2.8,0-4.3,0-4.3,0c-2-0.2-3-0.8-3-1.9c0-1.1,0.9-1.7,2.7-2c0.2,0,1.6,0,3.9,0c0.7,0,1.6,0,2.7,0.1c1.1,0.1,2,0.1,2.7,0.1
				c0.8,0,2.3-0.1,4.6-0.2c0.4,0,1.1,0,1.9,0.1c0.8,0.1,1.4,0.1,1.7,0.1c1.2,0,1.9-0.1,2.3-0.4c0.3-0.2,0.5-0.9,0.5-2
				c0-1.9,0.6-2.8,1.7-2.8C317.3,319.9,318.1,320.8,318.1,322.5z M318,382.6c0,5.4,0,9.5-0.1,12.1c0,1.6-0.1,2.6-0.3,3.2
				c-0.3,1.1-1,1.9-2.1,2.3c-0.8,0.2-2.7,0.4-5.5,0.4c-3.3,0-5-1.6-5-4.9c0-0.4,0-1,0.1-1.8c0-0.8,0-1.3,0-1.8
				c0-0.9-0.5-1.5-1.6-1.7c-0.3-0.1-1.3-0.1-3-0.1c-0.8,0-1.1,0.8-1.1,2.4c0,0.4,0,1.1,0.1,1.9c0.1,0.8,0.1,1.5,0.1,1.9
				c0,2.6-2.1,3.9-6.2,3.9c-4.6,0-6.8-1.3-6.8-3.9c0-0.4,0-0.9,0.1-1.6c0.1-0.7,0.1-1.2,0.1-1.6c0-1.4-0.2-2.3-0.7-2.6
				c-0.5-0.3-1.4-0.5-2.9-0.5c-1.3,0-2,0.3-2.2,0.9c0.1-0.3,0.1,0.5,0.1,2.3c0,2.8-0.4,4.6-1.3,5.6c-0.9,1-2.7,1.5-5.3,1.5
				c-2.2,0-3.8-0.3-4.7-0.8c-1-0.5-1.5-1.8-1.6-3.9c0.1,0.7,0.1-0.8,0.1-4.5c0-0.6,0-1.4,0-2.6c-0.1-1.1-0.1-2-0.1-2.7v-4
				c0-3.9,1.8-5.8,5.3-5.8c0.6,0,1.4,0,2.5,0.1c1.1,0.1,2,0.1,2.5,0.1c0.7,0,1.6,0,2.8-0.1c1.3,0,2.3,0,2.9,0c4.1,0,6.1,0.6,6.1,1.7
				c0,1.4-0.7,2.1-2.2,2.1c-1.7,0-4.2,0-7.6-0.1c-3.4-0.1-5.9-0.1-7.6-0.1c-0.3,0-0.6,0.1-0.8,0.2c-0.2,0.2-0.3,0.5-0.3,1.1
				c0,0.3,0,0.6,0,1.1c0.1,0.4,0.1,0.8,0.1,1c0,1.8,0,2.6-0.1,2.4c0.2,0.7,0.9,1.1,2.1,1.1c1.5,0,3.7,0,6.6-0.1
				c2.9-0.1,5.1-0.1,6.6-0.1c2.1,0,3.1,0.7,3.1,2.1c0,2.2,0.1,4.5,0.2,7c0.1,0.8,0.4,1.1,0.9,1.1l2.8-0.1c1.2,0,1.8-0.1,1.8-0.3
				c0-3.5,0-5.9,0.1-7.2c0.1-1.8,1.2-2.6,3.3-2.6c0.6,0,1.4,0,2.5,0.1c1.1,0.1,2,0.1,2.5,0.1c2.4,0,5.1-0.1,8.1-0.2
				c1.1-0.1,1.7-0.7,1.9-1.8c0-0.1,0-1.2,0-3.1c0-1,0-1.5-0.1-1.6c-0.1-0.1-0.7-0.1-1.7-0.1c-1.4,0-3.6,0-6.4,0.1
				c-2.8,0.1-4.9,0.1-6.3,0.1c-2.6,0-3.8-0.7-3.8-2.2c0-1.1,0.9-1.7,2.7-1.9c-0.1,0,1.4,0,4.3,0c1.2,0,3,0,5.5,0.1
				c2.5,0.1,4.3,0.1,5.5,0.1C316.6,376.4,318,378.5,318,382.6z M285.2,316.5c0,1.4-1.4,2.2-4.2,2.2c-0.5,0-1.2,0-2.2-0.1
				c-1-0.1-1.7-0.1-2.2-0.1c-0.4,0-1.1,0-2.1,0.1c-0.9,0.1-1.6,0.1-2.1,0.1c-2.8,0-4.1-0.7-4.1-2.1c0-1.3,1.4-1.9,4.3-1.9
				c0.4,0,1.1,0,2.1,0.1c1,0.1,1.7,0.1,2.2,0.1c0.4,0,1.1,0,2.1-0.1c0.9-0.1,1.7-0.1,2.2-0.1C283.9,314.6,285.2,315.2,285.2,316.5z
				 M285.2,326.9c0,1.3-1.4,2-4.1,2c-0.5,0-1.3,0-2.3-0.1c-1-0.1-1.8-0.1-2.3-0.1c-0.4,0-1.1,0-2,0.1c-0.9,0.1-1.6,0.1-2,0.1
				c-2.8,0-4.1-0.6-4.1-1.9c0-1.4,1.4-2.1,4.3-2.1c0.4,0,1.1,0,2.1,0.1c1,0.1,1.7,0.1,2.1,0.1c0.4,0,1.1,0,2-0.1
				c0.9-0.1,1.5-0.1,2-0.1C283.8,324.8,285.2,325.5,285.2,326.9z M277.6,393c0-1.1-0.1-1.9-0.4-2.2c-0.3-0.3-1-0.5-2-0.5
				c-1.6,0-2.5,0.2-2.8,0.5c-0.3,0.3-0.5,1.3-0.5,2.8c0,2.2,0.1,3.3,0.4,3.3c0.6,0,1.2,0,2,0.1c0.8,0,1.3,0,1.5,0
				c0.9,0,1.4-0.2,1.6-0.7C277.5,395.9,277.6,394.8,277.6,393z M317.9,313.4c0,3.4-2.1,5.1-6.3,5.1h-17.8c-1.6,0-2.4-0.7-2.4-2
				c0-1.3,1.1-2,3.4-2c0.9,0,2.3,0,4.2,0.1c1.9,0.1,3.3,0.1,4.3,0.1h5.5c1.7,0,3.2,0,4.3-0.1c0.8-0.1,1.1-0.1,1.1-0.2v-1.1
				c-0.1-1.6,0.6-2.4,2-2.4C317.3,310.9,317.9,311.7,317.9,313.4z M314.5,392.8c0-1.1-0.2-1.8-0.6-2.1c-0.4-0.2-1.2-0.4-2.5-0.4
				c-1.4,0-2.3,0.3-2.5,0.8c-0.2,0.3-0.3,0.9-0.3,1.9c0,0.4,0,1,0.1,1.7c0.1,0.8,0.1,1.3,0.1,1.6s0.5,0.4,1.4,0.4
				c1.1,0,2.5-0.1,4-0.3c0-0.4,0-1.1,0.1-1.9S314.5,393.3,314.5,392.8z"/>
		</g>
		<g>
			<path d="M328.9,309.4c0.8-0.3,1.3-0.5,1.5-0.5c0.2,0,0.3,0.1,0.4,0.3c0.1,0.2,0.3,0.2,0.5,0.1c0.2-0.1,0.6,0.2,1.4,0.9
				c0.8,0.7,1.2,1.2,1.2,1.5c0,0.2,0.5,0.8,1.4,1.9c0.5,0.6,1.2,1.3,1.9,2.2c0.7,0.9,1.3,1.7,1.8,2.3c0.5,0.6,0.7,1,0.5,1
				c-0.1,0-0.1,0.1,0,0.2c0.2,0.2,1.3-0.5,3.2-2.2c0.8-0.6,1.4-1.2,2-1.7c0.9-0.8,1.1-1.4,0.6-1.9c-0.2-0.2,0.2-0.8,1.1-1.8
				c0.6-0.7,1.1-1.1,1.3-1.3s0.5-0.1,0.9,0c0.5,0.2,0.9,0.3,1.2,0.2c0.2-0.1,0.4-0.1,0.5,0.1c0.1,0.2,0.3,0.3,0.7,0.3
				c0.3,0,0.7,0.3,1,1c0.3,0.6,0.4,1.2,0.4,1.8c-0.1,1-0.9,2.1-2.2,3.3c-1,0.8-2,1.9-3.2,3.1c-1.2,1.3-2,2.1-2.3,2.6
				c-0.4,0.6-0.8,1-1.3,1.2c-0.3,0.1-0.4,0.3-0.5,0.5c-0.1,0.2-0.1,0.7,0,1.4c0.1,1.1-0.1,1.8-0.4,2.1c-0.4,0.3-0.7,0.5-1.1,0.6
				c-0.3,0.1-0.5,0.1-0.7-0.1c-0.3-0.4-0.5-0.2-0.6,0.6c-0.1,0.4-0.2,1-0.3,1.7c-0.2,1.5-0.2,2.3-0.3,2.4c-0.5,1.8-0.7,4.4-0.9,7.8
				c-0.1,2.3-0.2,4.4-0.3,6.1c-0.1,1.8-0.2,2.7-0.2,3c0,0.4-0.4,0.9-1.1,1.5c-0.3,0.2-0.5,0.3-0.5,0.1c-0.1-0.2-0.5-0.4-1.1-0.5
				c-0.6-0.1-1-0.4-1.1-0.9c-0.1-0.5-0.4-1-0.7-1.4c-0.4-0.4-0.7-1.1-0.9-2.1c-0.2-0.6-0.2-1.2-0.2-1.6c0-0.4,0.1-1,0.3-1.9
				c0.6-2.4,1.1-5.6,1.3-9.5c0.3-3.9,0.2-6.4-0.1-7.5c-0.1-0.3-0.1-0.9,0.1-1.6c0.2-0.7,0.4-1.1,0.5-1.1c0.3,0,0.6-0.2,0.8-0.6
				c0.2-0.4,0.3-0.8,0.3-1.2c-0.1-0.3-0.1-0.5-0.2-0.6c-0.1-0.1-0.2,0-0.4,0.1c-0.2,0.2-0.3,0.2-0.3,0.2c0,0,0-0.1,0.2-0.3
				c0.2-0.2,0.3-0.3,0.3-0.6c0.1-0.2,0.1-0.4,0-0.6c0-0.2-0.1-0.3-0.2-0.3c-0.2,0-0.2-0.3-0.2-0.9s-0.1-1-0.3-1
				c-0.2-0.1-0.5-0.4-0.7-1c-0.3-0.6-0.9-1.4-1.8-2.5c-0.6-0.7-1.1-1.2-1.4-1.3c-0.3-0.2-0.7-0.3-1.3-0.3c-0.7,0-1.2-0.1-1.5-0.4
				c-0.3-0.3-0.4-0.8-0.3-1.4c0-0.3,0.2-0.6,0.3-0.8C328,309.8,328.4,309.6,328.9,309.4z"/>
			<path d="M343.4,369.1c0.9-0.2,1.7-0.2,2.6,0c0.9,0.2,1.5,0.6,2,1.1c0.5,0.6,0.8,1,0.8,1.3c0,0.2,0.1,0.4,0.3,0.4
				c0.2,0,0.4,0.4,0.6,1.1c0.2,0.7,0.2,1.4,0.1,2c-0.2,1.5-0.8,2.8-1.7,3.9c-0.3,0.5-0.5,0.9-0.5,1.2s-0.2,0.8-0.6,1.3
				c-0.3,0.5-0.4,0.8-0.3,0.9c0.2,0.1,0.8,0.3,1.7,0.5c1,0.2,2,0.7,3.1,1.5c1.1,0.8,1.9,1.6,2.3,2.4c1.2,2.6,1.1,5.5-0.3,8.7
				c-0.7,1.5-2.2,2.9-4.4,4.3c-2.2,1.4-4.4,2.2-6.5,2.4c-1.2,0.2-2.9,0.7-5.1,1.5c-1.9,0.8-3.1,1.2-3.6,1.3s-0.9,0-1.2-0.3
				c-0.2-0.2-0.3-0.2-0.4-0.2c-0.1,0-0.4,0.2-0.7,0.5c-0.5,0.5-1,0.8-1.4,0.9c-0.7,0.2-1.5-0.4-2.4-1.6c-0.9-1.3-1.3-2.5-1.3-3.7
				c0-0.4-0.2-1-0.6-1.9c-0.4-0.9-0.6-1.7-0.6-2.6c0-0.9,0.1-1.5,0.5-2c0.3-0.5,0.5-0.8,0.5-0.9s0.2-0.6,0.6-1.5
				c0.3-0.6,0.9-2.3,1.9-5c1-2.7,1.6-4.5,1.9-5.5c0.2-0.6,0.8-2.1,1.9-4.2c1-2.2,1.5-3.3,1.5-3.5c-0.2-0.2,0-0.6,0.5-1
				c0.5-0.4,0.9-0.6,1.1-0.5c0.4,0.1,0.7,0.1,0.9-0.1c0.3-0.2,1.4-0.7,3.1-1.4C341.5,369.7,342.7,369.2,343.4,369.1z M350.2,385.8
				c-0.3-0.3-1-0.5-2.2-0.6c-1.1-0.1-1.8-0.1-2.1,0.1c-0.2,0.2-0.8,0.4-1.7,0.5c-1,0.1-1.5,0.3-1.6,0.4c-0.1,0.1-0.6,0.5-1.5,1
				c-0.9,0.5-1.6,1-2.1,1.5c-0.5,0.5-0.8,0.7-1,0.7c-0.2,0-0.6-0.1-1.1-0.4c-0.8-0.4-1.2-0.4-1.2,0c0,0.1,0,0.2,0.1,0.2
				c0.1,0.3,0.1,0.5-0.1,0.6c-0.2,0.1-0.3,0.3-0.3,0.7s-0.2,0.9-0.5,1.7c-0.4,0.8-0.4,1.3-0.3,1.7c0.1,0.3,0.2,0.5,0.1,0.7
				c0,0.2-0.1,0.6-0.4,1.1c-0.2,0.5-0.4,1.2-0.6,2.1c0,0.2-0.1,0.3-0.1,0.5s0,0.2,0,0.3c0,0.1,0,0.1,0.1,0.1c0,0,0.1,0,0.2,0
				c0.3-0.1,1-0.3,2.1-0.6c1.3-0.4,2.9-1,4.9-1.8c1.9-0.8,3.1-1.3,3.3-1.5c0.3-0.3,0.6-0.4,0.9-0.4c0.3,0,0.5-0.1,0.5-0.3
				c0-0.2,0.2-0.3,0.6-0.3c0.4,0,0.6-0.1,0.6-0.2c0-0.2,0.6-0.8,1.7-1.9c1.1-1.2,1.8-2.3,2.2-3.4
				C350.9,387.2,350.8,386.4,350.2,385.8z M346.3,371.4c-0.2-0.5-0.5-0.7-0.9-0.8c-0.3-0.1-1.1,0-2.2,0.3c-0.6,0.1-1.5,0.3-2.6,0.7
				c-1.1,0.4-1.8,0.7-2.1,0.9c-0.5,0.3-0.7,0.7-0.7,1.3c0,0.2,0,0.3,0.1,0.3c0.2,0,0.2,0.3,0.3,0.9c0,0.6,0,1.3,0,2.1
				c-0.1,0.8-0.2,1.4-0.3,1.9c-0.4,1.4-0.6,2.6-0.6,3.5c0.1-0.2,0.3-0.3,0.5-0.2c0.3,0.2,1.3-0.3,2.9-1.6c0.7-0.6,1.6-1.5,2.7-2.6
				c1.1-1.1,1.7-1.7,1.7-1.9c0-0.2,0.3-0.7,0.9-1.6c0.5-0.8,0.8-1.4,0.8-1.8C346.7,372.5,346.6,372,346.3,371.4z"/>
		</g>
	</g>
	<g>
		<path d="M412.8,361.8c0.1,66.4-52.4,119.4-115.2,123.2c-36.9,2.2-68.9-9.5-95.3-35.4c-23.9-23.4-36.2-52.2-36.9-85.6
			c-1.4-69.1,53.9-124.6,120.9-126C356.4,236.5,413.2,293.3,412.8,361.8z M406.3,361.8c0.7-63.8-52.7-118.9-120.2-117.4
			c-62.9,1.4-116.6,54.3-114.5,121.4c2,60.9,52.5,114,119,113.2C355.7,478.2,406.8,424.5,406.3,361.8z"/>
		<path d="M290.2,250.5c58,0,110.1,47.2,110.2,111c0.1,62.4-49.7,110.1-108.6,111.5c-63.5,1.5-114.2-49.3-114.3-111.1
			C177.5,298.7,229.5,249.3,290.2,250.5z M290.4,457.4c52.8-0.6,94.3-44.1,94.5-95c0.2-53.8-42.8-96.8-96.6-96.7
			c-52.9,0.1-96.4,43.5-95.3,97.8C194,415.3,236.5,457.9,290.4,457.4z M346,278.6c1.4,1.1,2.7,2.1,3.9,3.1c1.9-2.2,3.6-4.2,5.4-6.4
			c-2.5-1.8-4.9-3.6-7.4-5.5c-2.1,3.2-4.1,6.2-6.2,9.3c3.2,2.4,6.1,4.6,9.3,6.9c2-2.3,3.9-4.5,6-6.8c2.1,1.7,4,3.3,6.1,5
			c-1.7,1.9-3.3,3.6-4.9,5.4c-1.2-1-2.2-1.9-3.3-2.7c0.3-0.5,0.5-0.8,0.8-1.1c0.7-0.5,1.4-1,2.1-1.5c-0.3,0.8-0.6,1.5-0.9,2.3
			c0,0.1-0.1,0.3-0.1,0.4c1.4,1,2.2,0.4,4-3.2c-1.3-1-2.6-2-4-3c-1.6,2.1-3.1,4-4.7,6c2.2,1.9,4.2,3.6,6.3,5.4
			c2.6-2.8,5.1-5.5,7.7-8.4c-3.3-2.6-6.5-5.2-9.8-7.8c-2.1,2.5-4,4.9-6.1,7.4c-2.1-1.6-4-3.2-6.1-4.8c1.6-2.1,3.1-4,4.6-6.1
			c1.3,1.1,2.3,2,3.4,3c-1,1.2-1.8,2.2-2.7,3.2c-0.2-0.1-0.5-0.2-0.7-0.3c0.4-0.9,0.8-1.7,1.2-2.7c-0.5-0.3-0.9-0.6-1.4-1
			C347.8,276.1,347,277.2,346,278.6z M338.1,276.6c1.8-3.3,3.6-6.6,5.5-10c-3.9-1.8-7.6-3.5-11.3-5.2c-1.4,2.9-2.8,5.7-4.2,8.6
			c-2.5-1.1-4.7-2.1-7.1-3.1c1-2.4,2-4.6,3-7c1.4,0.7,2.7,1.4,4,2.1c-0.7,1.4-1.3,2.6-1.9,3.8c-0.3-0.1-0.5-0.1-0.8-0.2
			c0.2-0.9,0.4-1.8,0.6-2.8c-0.5-0.2-1-0.4-1.7-0.7c-0.6,1.5-1.1,2.8-1.7,4.3c1.6,0.7,3,1.4,4.5,2.1c1.3-2.6,2.5-5,3.7-7.6
			c-3-1.2-5.6-2.3-8.4-3.5c-1.3,3.6-2.5,7-3.8,10.5c3.7,1.5,7.1,3,10.7,4.5c1.4-2.8,2.8-5.4,4.2-8.1c2.4,1.2,4.7,2.3,7.1,3.4
			c-1.2,2.2-2.3,4.3-3.4,6.4c-1.4-0.6-2.5-1.2-3.7-1.7c0.8-3.1,1.1-3.5,2.6-2.9c-0.3,0.8-0.6,1.6-0.9,2.3c1.7,0.9,1.9,0.8,3.3-3.9
			c-1.5-0.7-3-1.4-4.6-2.1c-1.1,2.5-2.1,4.7-3.1,7C333.2,274.1,335.6,275.3,338.1,276.6z M369.1,302.7c-1.5-2.1-3-4.2-4.5-6.3
			c2.1-1.6,4.1-3,6.2-4.5c0.9,1.4,1.6,2.6,2.3,3.8c-3,2.5-3.1,2.5-4,1.5c0.7-0.5,1.3-1.1,2.1-1.7c-0.4-0.5-0.8-1-1.2-1.5
			c-1.3,1-2.4,1.8-3.6,2.7c1,1.5,1.9,2.8,2.8,4.1c2.5-1.6,4.7-3.1,7.1-4.7c-1.9-2.5-3.7-4.9-5.5-7.3c-2.9,2.5-5.7,4.8-8.6,7.1
			c2.4,3.2,4.7,6.2,6.9,9.2c2.7-1.7,5.2-3.2,7.7-4.8c1.5,2.3,2.9,4.4,4.4,6.5c-2.1,1.3-4.1,2.5-6.2,3.9c-0.8-1.2-1.6-2.4-2.4-3.6
			c1.1-0.8,2.1-1.4,3-2.1c1.3,1,0.5,1.5-0.3,1.9c-1.2,0.7-1,1.4,0.2,2.1c1.2-0.9,2.5-1.9,3.9-2.9c-1.1-1.5-2.1-2.8-3.1-4.2
			c-2.1,1.5-4.1,2.9-6.2,4.4c1.6,2.5,3,4.7,4.5,7c3.3-2,6.5-3.9,9.8-5.8c-2.5-3.5-4.8-6.8-7.2-10.2
			C374.4,299.1,371.9,300.8,369.1,302.7z M384.3,337.2c3.8-1.1,7.2-2.2,10.9-3.2c-1.5-4-2.9-7.7-4.4-11.6c-3.1,1.1-6,2.1-9,3.1
			c-0.9-2.5-1.8-4.7-2.8-7.2c2.4-1,4.7-1.9,7.1-2.8c0.5,1.6,0.9,2.9,1.4,4.4c-1.6,0.5-2.9,0.9-4.2,1.3c-0.1-0.3-0.2-0.5-0.3-0.8
			c0.8-0.4,1.6-0.9,2.5-1.4c-0.2-0.6-0.4-1-0.7-1.6c-1.4,0.6-2.7,1.1-4.2,1.7c0.6,1.6,1.1,3.1,1.7,4.7c2.8-1,5.3-1.8,8-2.7
			c-1.2-2.9-2.3-5.6-3.5-8.4c-3.4,1.6-6.7,3.2-10.1,4.8c1.5,3.6,2.9,7.1,4.4,10.6c3-0.9,5.7-1.8,8.7-2.7c0.9,2.5,1.7,4.9,2.6,7.4
			c-2.4,0.7-4.6,1.4-7,2.2c-0.5-1.4-0.9-2.7-1.4-4c1-0.4,1.8-0.8,2.6-1c0.3-0.1,0.8,0.2,1.2,0.3c-0.2,0.4-0.3,0.8-0.6,1
			c-0.5,0.3-1.1,0.5-1.7,0.8c0.2,0.5,0.4,1,0.7,1.6c1.6-0.7,3-1.3,4.6-1.9c-0.7-1.7-1.3-3.2-2-4.8c-2.4,0.9-4.7,1.8-7.1,2.8
			C382.6,331.9,383.4,334.4,384.3,337.2z M182.6,386.2c3.7-0.8,7.2-1.5,10.9-2.3c-0.6-3.9-1.2-7.6-1.7-11.4
			c-3.1,0.2-6.1,0.4-9.1,0.6c-0.3-2.7-0.5-5.2-0.8-7.7c2.5-0.2,4.8-0.3,7.3-0.5c0.1,1.6,0.2,2.9,0.3,4.3c-0.9,0.1-1.5,0.3-2.2,0.3
			c-0.6,0-1.1-0.3-1.7-0.4c0.5-0.3,0.9-0.8,1.4-0.9c1.6-0.3,1.4-1,0.8-2c-1.6,0.3-3,0.5-4.6,0.8c0.2,1.7,0.4,3.4,0.6,5.1
			c2.3-0.3,4.4-0.5,6.5-0.8c0.4-0.1,1-0.9,1-1.3c-0.1-2.3-0.4-4.6-0.6-7.1c-3.9,0.2-7.6,0.4-11.4,0.6c0.5,4.3,1.1,8.2,1.6,12.3
			c3.3-0.3,6.3-0.6,9.5-0.8c0.3,2.7,0.6,5.1,1,7.6c-2.7,0.4-5,0.7-7.6,1.1c-0.1-1.7-0.1-3.1-0.2-4.4c3.7-0.7,3.7-0.7,4.1,0.6
			c-1.1,0.3-3.2-0.1-2,2.4c1.5-0.3,2.9-0.5,4.4-0.8c-0.2-1.7-0.4-3.3-0.6-4.9c-2.9,0.3-5.5,0.5-8.4,0.8
			C181.7,380.3,182.2,383.2,182.6,386.2z M248.4,260.5c1.1,3.1,2.1,6,3.2,9c-2.6,1-4.8,1.9-7.2,2.8c-1-2.5-1.9-4.7-2.8-7.1
			c1.6-0.5,2.9-1,4.3-1.4c0.4,1.2,0.8,2.2,1.1,3.2c0.1,0.3-0.2,0.8-0.3,1.1c-0.3-0.2-0.6-0.4-0.8-0.7c-0.3-0.5-0.5-1-0.8-1.7
			c-0.6,0.3-1.1,0.5-1.7,0.8c0.6,1.5,1.2,2.8,1.8,4.2c1.6-0.6,3.1-1.1,4.7-1.7c-0.9-2.7-1.8-5.3-2.8-8c-2.9,1.2-5.6,2.3-8.4,3.5
			c1.6,3.4,3.1,6.7,4.7,10c3.2-1.3,6.2-2.5,9.2-3.7c1.3-0.5,1.5-1.2,1-2.4c-0.8-2.2-1.5-4.5-2.3-6.9c2.5-0.9,4.9-1.7,7.4-2.6
			c0.8,2.4,1.5,4.6,2.2,7c-1.5,0.5-2.7,0.9-4,1.4c-0.5-1.2-0.9-2.3-1.4-3.4c1.3-1.2,1.6-0.2,1.8,0.7c0.4,1.3,1,1.4,2.1,0.4
			c-0.6-1.4-1.2-2.9-1.9-4.5c-1.7,0.7-3.2,1.3-4.8,2c1,2.5,1.8,4.7,2.8,7.1c2.7-0.9,5.3-1.8,7.9-2.7c-1.1-3.7-2.1-7.2-3.2-10.9
			C256.2,257.5,252.4,259,248.4,260.5z M233.1,270.3c1.4,2.2,2.7,4.1,4,6.2c-1.2,0.8-2.3,1.6-3.4,2.3c-2.4-2.4-2.5-2.8-1.2-3.6
			c0.5,0.6,1.1,1.3,1.6,1.9c1.5-1.1,0.9-2.4-1.9-4.7c-1.2,0.9-2.5,1.9-3.9,3c1.5,2.1,3,4.1,4.5,6.2c2.3-1.6,4.6-3.1,6.9-4.7
			c-2.1-3.3-4-6.4-6-9.6c-3.5,2.6-6.8,4.9-10.1,7.3c1.9,2.7,3.6,5.2,5.4,7.9c-2.1,1.6-4.1,3-6.3,4.6c-1.6-2.1-3.1-4.1-4.6-6.1
			c1.4-0.9,2.5-1.7,3.8-2.5c0.9,1.3,1.7,2.5,2.4,3.6c-0.2,0.2-0.4,0.3-0.6,0.5c-0.7-0.6-1.4-1.2-2.2-1.9c-0.4,0.4-0.8,0.7-1.3,1.1
			c1,1.3,1.9,2.4,2.8,3.6c1.4-1,2.7-1.9,4-2.9c-1.6-2.4-3.1-4.6-4.7-7c-2.5,1.9-4.8,3.7-7.2,5.6c2.5,2.9,4.8,5.6,7.2,8.4
			c3.1-2.4,6.1-4.7,9.2-7c-1.7-2.6-3.3-5-5-7.6C228.8,273.2,230.9,271.8,233.1,270.3z M299.5,467.9c-2.7,0.3-5.2,0.5-7.9,0.8
			c-0.1-1.4-0.1-2.7-0.2-3.9c-0.1-3.9-0.1-3.9,4.1-3.6c0.1,0.7,0.3,1.4,0.3,2.1c0,0.5-0.4,1.1-0.6,1.6c-0.3-0.5-0.7-0.9-0.8-1.4
			c-0.1-1.4-0.7-1.5-1.9-0.9c0.2,1.6,0.5,3.1,0.8,4.7c1.8-0.2,3.3-0.4,5.1-0.7c-0.3-2.6-0.6-5.1-0.9-7.6c-2.5,0.2-4.7,0.3-6.9,0.4
			c-1.3,0-1.5,0.7-1.4,1.8c0.1,2.1,0.2,4.2,0.3,6.4c0.1,1.1,0.2,2.2,0.2,3.4c4.2-0.5,8.2-0.9,12.3-1.4c-0.3-3.2-0.5-6.2-0.8-9.5
			c2.3-0.3,4.4-0.6,6.6-0.8c0.4,0,1.2,0.6,1.3,1c0.4,2,0.5,4.1,0.8,6.3c-1.6,0.1-3,0.2-4.5,0.3c-0.1-1.6-0.2-3-0.3-4.3
			c2.1-0.4,0.3,4,3.4,2.1c-0.2-1.3-0.4-2.7-0.7-4.3c-1.7,0.2-3.2,0.4-4.9,0.5c0.2,2.9,0.4,5.6,0.7,8.4c3.2-0.5,6-0.9,9-1.4
			c-0.7-3.7-1.4-7.3-2.1-10.9c-3.9,0.6-7.6,1.1-11.4,1.7C299.1,461.9,299.3,464.8,299.5,467.9z M206,304.2c1.1-1.3,2.1-2.5,3.2-3.8
			c-2.1-1.9-4.1-3.7-6.3-5.6c-1.9,2.5-3.7,4.8-5.6,7.2c3.1,2.2,6,4.2,9.1,6.4c2.4-3.1,4.7-6,7.1-9.1c-2.3-2.1-4.4-4.1-6.7-6.1
			c1.8-2,3.4-3.9,5.1-5.9c1.9,1.7,3.6,3.3,5.4,5c-1,1.2-1.9,2.2-2.8,3.3c-0.8-0.6-1.5-1-2-1.6c-0.3-0.3-0.4-0.9-0.6-1.4
			c0.5,0.1,1.2,0,1.5,0.3c1,0.9,1.7,0.9,2.2-0.5c-1.3-1-2.6-2-4-3c-1.1,1.4-2.1,2.7-3.2,4c2,1.6,3.9,3.2,5.9,4.8
			c1.9-2.1,3.7-4.1,4.9-5.4c-2.5-3-4.9-5.8-7.4-8.8c-2.9,3.5-5.4,6.5-8.1,9.7c2.5,2.2,4.8,4.1,7.2,6.2c-1.7,2-3.2,4-4.9,6
			c-2-1.6-4-3.1-6-4.7c1.1-1.2,2-2.3,3.1-3.4c1.2,1.1,2.2,2,3.2,2.9c-0.1,0.2-0.2,0.5-0.4,0.7c-0.8-0.4-1.7-0.8-2.6-1.3
			c-0.3,0.4-0.6,0.8-1,1.4C203.7,302.4,204.8,303.2,206,304.2z M350.4,447.3c-1.6-2.1-3-4.1-4.6-6.2c-2.4,1.6-4.6,3.1-6.9,4.6
			c2,3.3,3.9,6.4,5.9,9.7c3.5-2.5,6.7-4.8,10.2-7.2c-1.8-2.7-3.6-5.2-5.4-7.9c2.2-1.6,4.2-3,6.3-4.6c1.6,2.1,3,4.1,4.6,6.1
			c-1.4,0.9-2.5,1.6-3.8,2.5c-0.9-1.3-1.6-2.5-2.4-3.6c0.2-0.2,0.4-0.4,0.6-0.5c0.7,0.6,1.4,1.3,2.2,2c0.4-0.4,0.9-0.7,1.4-1.2
			c-1-1.3-1.8-2.4-2.8-3.6c-1.4,1-2.7,2-4.1,2.9c1.6,2.4,3.2,4.6,4.7,7c2.5-2,4.9-3.7,7.3-5.6c-2.5-2.9-4.8-5.6-7.2-8.5
			c-3.2,2.4-6.2,4.7-9.2,7c1.7,2.7,3.3,5.1,4.9,7.7c-2.2,1.5-4.3,2.9-6.5,4.4c-1.3-2.1-2.6-4-3.9-6.1c1.3-0.9,2.4-1.6,3.6-2.5
			c0.7,1,1.3,1.7,1.7,2.5c0.1,0.3-0.1,0.8-0.2,1.2c-0.3-0.1-0.7-0.2-0.9-0.4c-0.5-0.4-0.8-1-1.3-1.5c-0.5,0.4-0.8,0.7-1.3,1.1
			c1,1.3,2,2.6,3.1,3.9C347.7,449.3,349,448.3,350.4,447.3z M265.6,458.6c1.5,0.3,2.8,0.6,4.1,0.8c-0.3,3.5-0.3,3.5-1.8,3.4
			c0.1-0.8,0.2-1.7,0.3-2.5c-1.9-0.4-2.3,0.7-2,4.7c1.5,0.2,3.1,0.4,4.8,0.7c0.4-2.3,0.8-4.5,1.1-6.6c0-0.3-0.5-1-0.8-1.1
			c-2.3-0.5-4.7-1-7.2-1.5c-0.9,3.7-1.8,7.3-2.7,11c3.9,0.7,7.5,1.3,11.1,1.9c1.1,0.2,1.4-0.4,1.5-1.3c0.5-2.6,1-5.2,1.5-7.9
			c2.6,0.4,5.1,0.8,7.6,1.3c-0.4,2.6-0.7,4.9-1.1,7.5c-1.5-0.3-2.9-0.6-4.4-0.9c0.2-1.2,0.3-2.2,0.5-3.2c0.1-0.4,0.5-0.7,0.7-1
			c0.2,0.4,0.6,0.9,0.5,1.3c-0.2,1.4,0.1,2.1,1.7,1.7c0.2-1.4,0.4-2.8,0.7-4.3c-1.7-0.3-3.3-0.6-4.9-0.9c-0.6,2.8-1.1,5.4-1.6,8.3
			c3.1,0.4,6,0.8,9,1.2c0.3-3.8,0.6-7.4,0.9-11.1c-4-0.5-7.6-1-11.4-1.5c-0.7,3.1-1.3,5.9-2,8.9c-2.7-0.5-5.1-1-7.7-1.5
			C264.6,463.3,265.1,461.1,265.6,458.6z M188.6,320.4c-1.1,2.9-2.2,5.7-3.3,8.5c3.4,1.1,6.4,2.2,9.5,3.2c0.4,0.1,1.2-0.1,1.3-0.4
			c1.4-3.3,2.7-6.6,4-10c-2.9-1.4-5.5-2.6-8.2-4c1.1-2.4,2.1-4.7,3.2-7.2c2.3,1.1,4.4,2.1,6.6,3.2c-0.7,1.5-1.2,2.6-1.7,3.8
			c-3.5-1.1-3.5-1.1-2.9-2.6c0.4,0.1,0.7,0.3,1.1,0.4c0.4,0.2,0.8,0.3,1.3,0.5c0.9-1.7,0.4-2.1-4-3.2c-0.6,1.5-1.2,3-1.8,4.7
			c2.4,1,4.7,1.9,7,2.9c1.2-2.6,2.4-5,3.6-7.5c-3.4-1.7-6.7-3.4-10.1-5.2c-1.7,3.9-3.2,7.6-4.9,11.4c3,1.4,5.8,2.7,8.7,4
			c-1.1,2.5-2,4.7-3,7.1c-2.4-1-4.7-1.9-7.1-2.9c0.7-1.4,1.3-2.7,2-4.1c1.4,0.7,2.7,1.3,3.9,1.9c-0.1,0.3-0.2,0.5-0.3,0.8
			c-0.9-0.2-1.8-0.4-2.8-0.7c-0.2,0.5-0.4,1.1-0.6,1.7c1.4,0.6,2.7,1.1,4.2,1.6c0.7-1.5,1.3-3,2-4.5
			C193.7,322.8,191.3,321.7,188.6,320.4z M366.9,438.2c2.7-3.3,5.3-6.4,7.9-9.6c-2.5-2.1-4.8-4.2-7.2-6.3c1.7-2.1,3.3-4,4.9-6
			c2.1,1.7,4,3.2,6,4.8c-1.1,1.2-2,2.2-3,3.3c-1.2-1-2.2-1.9-3.2-2.8c0.1-0.2,0.2-0.5,0.4-0.7c0.9,0.4,1.7,0.8,2.7,1.2
			c0.3-0.4,0.6-0.9,1-1.4c-1.3-1-2.4-1.8-3.6-2.7c-1.1,1.3-2.1,2.5-3.2,3.8c2.1,1.9,4.1,3.7,6.3,5.6c1.9-2.5,3.7-4.8,5.5-7.3
			c-3.1-2.2-6.1-4.2-9.1-6.4c-2.4,3.1-4.7,6.1-7.1,9.1c2.3,2.1,4.5,4.1,6.7,6.2c-1.8,2.1-3.5,4-5.2,5.9c-1.8-1.7-3.5-3.3-5.3-5
			c1-1.1,1.8-2.2,2.8-3.3c1.1,0.9,2,1.6,3,2.5c-1.5,1.9-2.1-0.7-3.3-0.4c-0.2,0.2-0.5,0.6-0.9,1.1c1.4,1,2.6,2,4,3
			c1.1-1.3,2.1-2.6,3.3-4.1c-2.1-1.7-4-3.2-6-4.8c-1.9,2.2-3.7,4.2-5.6,6.2C361.4,433,364,435.5,366.9,438.2z M392.7,384.4
			c0.2-1.8,0.4-3.4,0.6-5.1c-2.6-0.4-4.9-0.7-7.5-1c-0.5,2.8-1,5.4-1.6,8.2c3.8,0.8,7.3,1.6,11.1,2.5c0.7-4.2,1.3-8.2,1.9-12.3
			c-3.2-0.6-6.2-1.1-9.4-1.7c0.4-2.6,0.8-5,1.1-7.6c2.6,0.3,5,0.7,7.5,1c-0.3,1.5-0.6,2.9-0.9,4.3c-1.6-0.2-3.1,0-4.6-1.6
			c1.4,0,2.3,0,3.1,0c0.6-2.1-0.5-2.6-4.2-2c-0.2,1.5-0.5,2.9-0.7,4.6c2.8,0.5,5.5,1,8.3,1.5c0.3-3.2,0.7-6,1-9.1
			c-3.5-0.2-6.8-0.5-10-0.6c-0.4,0-1.1,0.6-1.2,0.9c-0.5,3.4-0.8,6.8-1.2,10.4c3,0.6,5.9,1.2,8.9,1.8c-0.5,2.7-0.9,5.2-1.4,7.7
			c-2.5-0.5-4.7-1-7.1-1.5c0.3-1.5,0.5-2.9,0.8-4.2c3.7,0.4,3.7,0.4,3.2,2c-0.3-0.1-0.7-0.3-0.9-0.2c-0.6,0.1-1.1,0.4-1.7,0.7
			c0.4,0.4,0.8,0.9,1.3,1C390.1,384.3,391.3,384.3,392.7,384.4z M314.8,455.9c1.2,3.7,2.3,7.2,3.4,10.8c4-1.6,7.7-3.1,11.6-4.6
			c-1.1-3-2.2-5.8-3.4-8.9c2.4-1,4.7-2,7.2-3c1,2.4,2,4.6,3,7c-1.5,0.5-2.9,1-4.4,1.5c-0.5-1.6-0.9-2.9-1.3-4.2
			c0.3-0.1,0.5-0.2,0.8-0.3c0.4,0.8,0.8,1.5,1.3,2.4c0.6-0.2,1.1-0.5,1.7-0.7c-0.7-1.5-1.2-2.8-1.9-4.2c-1.6,0.6-3,1.2-4.6,1.8
			c1,2.7,1.9,5.2,2.9,7.9c2.9-1.3,5.5-2.4,8.4-3.7c-1.7-3.4-3.3-6.6-5-9.9c-3.4,1.4-6.4,2.8-9.5,4.1c-1,0.4-1,1-0.7,1.9
			c0.9,2.4,1.7,4.7,2.5,7.2c-2.5,0.9-4.9,1.8-7.4,2.7c-0.8-2.5-1.5-4.6-2.3-6.9c1.4-0.5,2.6-1,3.9-1.4c1.7,2.8,1.7,3.2,0.3,3.9
			c-0.4-0.8-0.7-1.5-1.1-2.3c-1.8,0.5-1.6,1.7,0.6,5c1.5-0.6,3-1.3,4.6-2c-1-2.4-1.9-4.7-2.9-7C320,454.1,317.5,455,314.8,455.9z
			 M189.4,400c-1-2.5-1.9-4.9-2.8-7.4c2.4-0.8,4.6-1.6,6.9-2.4c0.6,1.4,1,2.6,1.5,3.8c-3,1.8-3.3,1.8-3.8,0.2
			c0.7-0.3,1.4-0.7,2.3-1.1c-0.2-0.5-0.4-1-0.7-1.5c-1.6,0.7-3,1.3-4.6,2c0.7,1.7,1.4,3.1,2.1,4.7c2.4-1,4.6-1.9,7-2.9
			c-1-2.7-1.9-5.2-2.8-7.9c-3.7,1.2-7.2,2.3-10.8,3.5c1.6,4,3.1,7.7,4.7,11.5c3.1-1.2,6-2.2,9-3.4c1,2.5,1.9,4.8,2.9,7.2
			c-2.5,1-4.7,2-7,3c-0.6-1.5-1-2.8-1.5-4.2c1.5-0.6,2.7-1.1,4-1.6c0.2,0.2,0.3,0.4,0.5,0.6c-0.8,0.6-1.5,1.2-2.4,1.8
			c0.2,0.4,0.4,0.9,0.7,1.5c1.4-0.6,2.7-1.2,4.2-1.8c-0.6-1.6-1.2-3.1-1.8-4.7c-2.7,1-5.2,1.9-7.9,2.9c1.3,2.9,2.5,5.6,3.8,8.4
			c3.5-1.8,6.6-3.4,9.9-5c-1.6-3.6-3.1-7.1-4.7-10.6C195.1,398,192.4,398.9,189.4,400z M189.4,355.5c-2.6-0.3-5-0.6-7.7-1
			c0.4-1.7,0.7-3,1-4.4c1.6,0.3,2.9,0.6,4.2,0.8c0,0.2,0,0.5,0,0.7c-0.9,0.1-1.9,0.2-3.1,0.3c0.1,0.6,0.2,1.6,0.5,1.6
			c1.2,0.3,3.2,0.8,3.6,0.3c0.9-1.2,1-3,1.4-4.6c-3-0.6-5.6-1-8.4-1.6c-0.4,3.1-0.7,6-1.1,9.1c3.8,0.2,7.4,0.5,11.1,0.7
			c0.5-3.9,0.9-7.6,1.4-11.4c-3-0.6-5.9-1.2-9-1.8c0.5-2.7,0.9-5.1,1.4-7.7c2.4,0.5,4.7,1,7.1,1.5c-0.3,1.5-0.5,2.8-0.7,4.3
			c-1.4-0.2-2.5-0.4-3.7-0.6c0-1.9,1.1-1.1,1.9-1.1c0.4,0,0.8-0.4,1.2-0.7c-0.3-0.3-0.5-0.9-0.9-1c-1.3-0.2-2.6-0.3-4.1-0.4
			c-0.2,1.8-0.4,3.4-0.6,5.1c2.7,0.4,5,0.7,7.5,1c0.5-2.8,1-5.4,1.5-8.2c-3.8-0.8-7.3-1.6-11.1-2.4c-0.6,4.2-1.2,8.1-1.9,12.3
			c3.1,0.6,6.2,1.1,9.4,1.7C190,350.4,189.7,352.8,189.4,355.5z M378.3,408.4c1.6,0.7,3,1.3,4.6,2c0.7-1.7,1.4-3.1,2.1-4.8
			c-2.4-1.1-4.6-2.1-6.9-3.1c-1.3,2.5-2.5,4.9-3.8,7.4c3.3,1.9,6.5,3.7,9.9,5.6c1.8-3.8,3.5-7.5,5.3-11.3c-2.9-1.5-5.7-2.8-8.6-4.2
			c1.2-2.5,2.2-4.7,3.3-7.1c2.5,1.1,4.7,2.1,7,3.2c-0.8,1.5-1.5,2.7-2.2,3.9c-1.1-0.6-2.1-1-3-1.5c-0.3-0.2-0.4-0.7-0.5-1
			c0.3,0,0.7-0.1,1,0c0.6,0.2,1.1,0.4,1.7,0.7c0.3-0.6,0.5-1.1,0.7-1.8c-1.4-0.6-2.7-1.2-4.2-1.8c-0.8,1.6-1.4,3-2.1,4.5
			c2.6,1.3,5,2.5,7.5,3.8c1.2-2.9,2.4-5.6,3.6-8.4c-3.5-1.3-6.9-2.6-10.4-3.9c-1.6,3.6-3.1,7.1-4.6,10.6c2.8,1.5,5.4,2.9,8,4.3
			c-1.2,2.4-2.3,4.6-3.5,7c-2.2-1.2-4.3-2.3-6.4-3.5c0.7-1.4,1.3-2.6,1.9-3.7c3.2,1.2,3.2,1.2,2.8,2.5
			C380.5,408.1,379.1,405.7,378.3,408.4z M203.5,413c0.8,1.2,1.6,2.3,2.5,3.6c-1.4,0.5-2,2.5-4.2,1.4c1-0.9,1.7-1.4,2.4-2
			c-0.3-0.4-0.6-0.8-1-1.4c-1.4,1.1-2.6,2.1-4,3.1c1.2,1.5,2.1,2.7,3.2,4.1c2.1-1.6,4.1-3.1,6.1-4.6c-1.6-2.4-3.1-4.6-4.6-6.9
			c-3.3,2.1-6.5,4-9.6,6c2.5,3.5,4.9,6.7,7.3,10.1c2.7-1.9,5.2-3.6,7.8-5.4c1.6,2.2,3.1,4.2,4.6,6.3c-2.1,1.6-4.1,3.1-6.1,4.6
			c-0.9-1.3-1.6-2.5-2.5-3.8c1.3-0.8,2.4-1.6,3.6-2.4c0.2,0.2,0.3,0.4,0.5,0.6c-0.6,0.7-1.2,1.3-2,2.1c0.3,0.4,0.7,0.9,1.1,1.4
			c1.3-1,2.4-1.9,3.6-2.8c-1-1.4-1.9-2.7-2.9-4.1c-2.4,1.6-4.6,3.2-7,4.7c1.9,2.5,3.7,4.8,5.6,7.2c2.9-2.5,5.6-4.8,8.4-7.3
			c-2.5-3.2-4.8-6.1-7.1-9.1c-2.7,1.7-5.1,3.3-7.6,5c-1.6-2.3-3-4.3-4.5-6.5C199.4,415.5,201.4,414.3,203.5,413z M221.2,441.9
			c1.7-2,3.3-3.9,4.9-5.8c-2.2-2-4.1-3.8-5.7-5.2c-2.8,2.7-5.5,5.2-8.2,7.8c3.1,2.6,6.1,5.2,9.2,7.9c2.2-2.4,4.2-4.7,6.4-7.1
			c2,1.7,3.9,3.3,5.9,5c-1.7,2.1-3.2,3.9-4.8,5.9c-1.2-1.1-2.2-2-3.3-3.1c1-1.1,2-2.2,2.9-3.2c0.2,0.1,0.4,0.3,0.7,0.4
			c-0.4,0.8-0.9,1.7-1.4,2.6c0.4,0.3,0.9,0.7,1.4,1.1c1-1.3,1.9-2.4,2.9-3.6c-1.3-1.2-2.5-2.2-3.7-3.3c-2,2.2-3.8,4.2-5.7,6.2
			c2.4,2,4.7,3.8,7.1,5.7c2.2-3.1,4.3-6,6.5-9c-3.1-2.5-6-4.8-9-7.3c-2.1,2.2-4.1,4.4-6.3,6.6c-2-1.8-3.9-3.5-5.8-5.3
			c1.9-1.8,3.5-3.4,5.2-5.1c1,0.9,2,1.8,3,2.7c-0.5,0.7-0.9,1.3-1.5,1.7c-0.4,0.3-1,0.5-1.5,0.7c0.1-0.5,0.1-1.2,0.4-1.5
			c0.9-0.9,0.8-1.6-0.5-2.1c-1,1.2-2,2.5-3.1,3.9C218.6,439.8,219.8,440.8,221.2,441.9z M272,256.4c0.1,1.6,0.2,3,0.3,4.3
			c-0.2,0.1-0.5,0.1-0.7,0.2c-0.3-0.9-0.6-1.8-1-2.9c-0.5,0.2-1.4,0.5-1.4,0.7c0.1,1.3-0.1,3.5,0.6,3.7c1.4,0.6,3.1,0.2,4.9,0.2
			c-0.3-3.1-0.5-5.7-0.8-8.6c-3.1,0.5-5.9,1-9,1.4c0.8,3.7,1.5,7.2,2.3,10.9c3.9-0.6,7.6-1.2,11.3-1.8c-0.2-3.2-0.4-6-0.6-9.1
			c2.7-0.2,5.2-0.4,7.9-0.6c0.1,1.3,0.1,2.2,0.1,3.1c0.2,3.9,0.2,3.9-3.5,4.5c-0.1,0-0.2-0.1-0.5-0.2c-0.1-1.1-0.3-2.4-0.5-3.6
			c2.5-0.3,1,2.1,2.5,2.7c1.7-1.6,0-3.4,0.3-5.3c-1.6,0.2-2.8,0.2-4,0.6c-0.5,0.1-1.2,0.9-1.1,1.3c0.2,2,0.6,4.1,0.9,6.3
			c2.8-0.2,5.4-0.5,8.3-0.7c-0.2-3.9-0.4-7.5-0.6-11.3c-4.2,0.5-8.2,1-12.3,1.5c0.3,3.3,0.6,6.3,0.9,9.5c-2.6,0.3-5,0.7-7.6,1
			c-0.4-2.6-0.8-5-1.2-7.6C269,256.6,270.3,256.5,272,256.4z M296.5,261.3c1.7,0.3,3.2,0.5,4.9,0.8c0.5-2.8,1-5.4,1.6-8.3
			c-3.1-0.4-6-0.7-9.1-1.1c-0.3,3.8-0.5,7.4-0.8,11.1c3.9,0.5,7.5,1,11.4,1.4c0.6-3,1.3-5.9,1.9-8.9c2.3,0.4,4.4,0.7,6.5,1.1
			c0.4,0.1,1,0.9,0.9,1.3c-0.3,2-0.8,4-1.2,6.1c-1.6-0.3-2.9-0.6-4.3-0.8c0.1-0.6,0.1-0.8,0.2-1.1c0.4-0.9,0.7-1.7,1.1-2.6
			c0.2,0.9,0.3,1.9,0.5,2.8c1.8,0.3,1.8,0.3,2-4.5c-4.7-1.4-4.7-1.4-5.6,3.4c-0.2,1-0.3,2.1-0.5,3.3c2.8,0.6,5.4,1.1,8.2,1.7
			c0.9-3.8,1.7-7.4,2.6-11.1c-4.2-0.6-8.3-1.2-12.3-1.8c-0.6,3.3-1.1,6.3-1.6,9.3c-2.3-0.3-4.5-0.5-6.7-0.9
			c-0.4-0.1-0.9-0.8-0.9-1.2c0.2-2.1,0.6-4.2,0.9-6.5c1.5,0.3,2.9,0.6,4.4,0.8c-0.3,1.6-0.5,2.9-0.8,4.2c-0.3,0-0.6,0-0.8,0
			c0-0.9-0.1-1.8-0.1-2.8c-0.5-0.1-1-0.2-1.7-0.3C296.8,258.3,296.7,259.7,296.5,261.3z M245.1,458.8c-2.5-1.2-4.7-2.4-7-3.5
			c1.2-2.2,2.3-4.2,3.5-6.4c1.4,0.7,2.6,1.3,4,2c-1.1,1-0.5,3.2-3,3c0.4-1.1,0.7-1.9,1-2.7c-1.6-0.8-2.4,0.3-3.2,4
			c1.4,0.6,2.9,1.3,4.5,2c1.1-2.4,2.1-4.6,3.2-6.9c-2.5-1.3-4.9-2.5-7.4-3.8c-1.9,3.4-3.7,6.6-5.6,9.9c3.9,1.8,7.5,3.5,11.3,5.3
			c1.5-2.9,2.8-5.7,4.2-8.6c2.4,1.1,4.7,2.1,7,3.2c-1.1,2.4-2,4.6-3.1,7c-1.4-0.8-2.7-1.4-3.9-2.1c1.4-3.4,1.4-3.4,2.7-3.4
			c0.4,1-2.1,2.8,1,3.2c0.5-1.3,1.1-2.6,1.7-4.1c-1.6-0.8-3-1.4-4.5-2.2c-1.3,2.6-2.5,5-3.8,7.5c2.9,1.2,5.6,2.4,8.4,3.6
			c1.3-3.5,2.6-6.9,3.9-10.4c-3.6-1.5-7-3-10.6-4.6C247.9,453.5,246.5,456,245.1,458.8z M397.7,349.8c-2.8,0.2-5.3,0.4-7.9,0.5
			c-0.6,0-1.6-0.4-1.6-0.8c-0.4-2.2-0.5-4.4-0.7-6.8c2.6-0.3,5-0.6,7.6-0.9c0,1.6,0,3.1,0,4.6c-1.5,0-2.8,0-4.1,0
			c0-0.2-0.1-0.4-0.1-0.5c0.8-0.3,1.7-0.6,2.6-0.9c-0.1-0.5-0.1-1-0.2-1.7c-1.5,0.2-3,0.3-4.5,0.5c0.1,1.7,0.3,3.2,0.4,4.9
			c2.8-0.1,5.5-0.2,8.4-0.4c-0.4-3.2-0.8-6-1.1-9.1c-3.5,0.6-6.7,1.1-10,1.8c-0.4,0.1-0.9,0.9-0.8,1.4c0.3,2.8,0.7,5.7,1,8.5
			c0.1,1.3,0.6,1.7,1.9,1.6c2.4-0.2,4.9-0.2,7.4-0.4c0.2,2.8,0.4,5.3,0.6,7.9c-2.6,0-5,0-7.3,0c-0.1-1.4-0.1-2.7-0.2-4
			c1-0.1,1.8-0.3,2.7-0.3c0.4,0,0.7,0.3,1.1,0.5c-0.3,0.3-0.5,0.6-0.8,0.8c-0.3,0.2-0.7,0.1-0.9,0.2c-0.4,0.3-0.6,0.7-0.9,1
			c0.3,0.2,0.7,0.6,1,0.6c1.3-0.1,2.6-0.3,4.1-0.5c-0.2-1.8-0.4-3.4-0.6-5.1c-2.6,0.3-5,0.5-7.5,0.8c0.1,2.8,0.3,5.4,0.4,8.1
			c3.8,0,7.5,0,11.3,0C398.4,358,398.1,354.1,397.7,349.8z"/>
	</g>
</g>
</svg>
